<svg width="44" height="27" viewBox="0 0 44 27" fill="none" xmlns="http://www.w3.org/2000/svg">
<path d="M41.4457 0H25.897C25.0215 0 24.2861 0.700391 24.2861 1.6109C24.2861 2.48639 24.9865 3.2218 25.897 3.2218H37.8036L22.43 18.5604L15.3911 11.5214C14.7607 10.8911 13.7452 10.8911 13.1498 11.5214L0.472764 24.1635C-0.157588 24.7938 -0.157588 25.8094 0.472764 26.4047C0.78794 26.7199 1.20818 26.86 1.59339 26.86C1.97861 26.86 2.39884 26.7199 2.71402 26.4047L14.2355 14.8833L21.2744 21.9222C21.9047 22.5526 22.9203 22.5526 23.5156 21.9222L39.8348 5.60313V17.895C39.8348 18.7705 40.5352 19.4709 41.4457 19.4709C42.3562 19.4709 43.0566 18.7705 43.0566 17.895V1.6109C43.0566 0.700391 42.3211 0 41.4457 0Z" fill="#84E39B"/>
</svg>
