<svg width="30" height="32" viewBox="0 0 30 32" fill="none" xmlns="http://www.w3.org/2000/svg">
<path d="M7.91439 31.3H21.2401C25.6026 31.3 29.1545 27.4552 29.1545 22.7331V9.13454C29.1545 8.48945 28.6778 7.97337 28.058 7.97337H22.1937V1.18697C22.1937 0.54188 21.7169 0 21.1209 0H8.03359C7.43762 0 6.93701 0.516076 6.93701 1.18697V7.97337H1.09657C0.500609 7.97337 0 8.48945 0 9.13454V22.7331C0 27.4552 3.55194 31.3 7.91439 31.3ZM9.13016 2.34815H20.0244V7.97337H9.13016V2.34815ZM2.16931 10.3215H26.9614V22.7331C26.9614 26.165 24.3868 28.9519 21.2163 28.9519H7.91439C4.74387 28.9519 2.16931 26.165 2.16931 22.7331V10.3215Z" fill="white"/>
</svg>
