<svg width="28" height="17" viewBox="0 0 28 17" fill="none" xmlns="http://www.w3.org/2000/svg">
<path d="M26.0154 0L16.2555 0C15.706 0 15.2443 0.439635 15.2443 1.01116C15.2443 1.5607 15.684 2.02232 16.2555 2.02232H23.7293L14.0793 11.6503L9.66098 7.232C9.26531 6.83632 8.62784 6.83632 8.25415 7.232L0.296754 15.1674C-0.0989179 15.5631 -0.0989179 16.2006 0.296754 16.5742C0.494589 16.7721 0.758371 16.86 1.00017 16.86C1.24197 16.86 1.50575 16.7721 1.70359 16.5742L8.93558 9.34224L13.3539 13.7606C13.7496 14.1562 14.3871 14.1562 14.7607 13.7606L25.0042 3.51708V11.2327C25.0042 11.7822 25.4439 12.2219 26.0154 12.2219C26.5869 12.2219 27.0266 11.7822 27.0266 11.2327V1.01116C27.0266 0.439635 26.565 0 26.0154 0Z" fill="#5FE47F"/>
</svg>
