<svg width="27" height="27" viewBox="0 0 27 27" fill="none" xmlns="http://www.w3.org/2000/svg">
<path d="M22.0634 3.6593C22.0419 3.63777 22.0419 3.63777 22.0419 3.61625C22.0204 3.59472 21.9988 3.5732 21.9773 3.5732C19.631 1.35609 16.4884 0 13.0228 0C9.32044 0 5.76877 1.59287 3.31489 4.34811C1.18389 6.73741 0 9.81553 0 13.0228C0 16.4668 1.35609 19.6095 3.53014 21.9343C3.55167 21.9773 3.57319 21.9988 3.61625 22.0419C3.63777 22.0634 3.6593 22.0849 3.68082 22.0849C6.0486 24.5173 9.36349 26.0456 13.0013 26.0456C16.5745 26.0456 19.8248 24.5819 22.1926 22.2356C22.1926 22.2356 22.2141 22.2356 22.2141 22.2141C22.2141 22.2141 22.2141 22.1926 22.2356 22.1926C24.5819 19.8463 26.0456 16.596 26.0456 13.0013C26.0456 9.34197 24.5173 6.02708 22.0634 3.6593ZM19.9109 4.36963L16.4668 7.79215C15.4767 7.12487 14.2928 6.73741 13.0013 6.73741C11.6667 6.73741 10.3752 7.16792 9.32044 7.94283L5.91945 4.54183C7.89977 2.88439 10.4182 1.9588 13.0228 1.9588C15.6273 1.9588 18.0167 2.86286 19.9109 4.36963ZM16.0579 16.0579C16.0363 16.0794 16.0148 16.1009 15.9933 16.1224C15.2184 16.8758 14.1636 17.3279 13.0228 17.3279C10.655 17.3279 8.71774 15.3906 8.71774 13.0228C8.71774 11.9681 9.10519 10.9348 9.81552 10.1599C9.85857 10.1169 9.90162 10.0738 9.9662 10.0093L9.98773 9.98773L10.0093 9.96621C10.8057 9.16977 11.8819 8.73926 13.0228 8.73926C15.3906 8.73926 17.3278 10.6765 17.3278 13.0443C17.3278 14.2067 16.8758 15.2399 16.1224 16.0148C16.1009 16.0148 16.0794 16.0363 16.0579 16.0579ZM4.54183 5.91945L7.96435 9.34197C7.18944 10.4182 6.75893 11.6882 6.75893 13.0228C6.75893 14.2928 7.14639 15.4982 7.81367 16.4884L4.36963 19.9109C2.86286 18.0167 1.9588 15.6274 1.9588 13.0228C1.9588 10.4182 2.86286 7.9213 4.54183 5.91945ZM5.72572 21.3316L9.12672 17.9306C10.203 18.7916 11.5591 19.2867 13.0228 19.2867C14.4004 19.2867 15.6704 18.8346 16.7036 18.0812L20.1261 21.5038C18.2104 23.1182 15.735 24.0868 13.0443 24.0868C10.2245 24.0868 7.663 23.0321 5.72572 21.3316ZM21.5037 20.1046L18.0812 16.7036C18.8346 15.6704 19.2866 14.4004 19.2866 13.0228C19.2866 11.5591 18.77 10.203 17.9306 9.12672L21.3315 5.72573C23.0536 7.68453 24.0868 10.2245 24.0868 13.0228C24.0868 15.7135 23.0966 18.1889 21.5037 20.1046Z" fill="#6A6971"/>
</svg>
