<svg width="16" height="16" viewBox="0 0 16 16" fill="none" xmlns="http://www.w3.org/2000/svg">
<g clip-path="url(#clip0)">
<path d="M0.568878 11.4889H10.9324C11.2415 11.4889 11.5012 11.2415 11.5012 10.92V0.568878C11.5012 0.259705 11.2539 0 10.9324 0H0.568878C0.247338 0 0 0.247338 0 0.568878V10.9324C0 11.2292 0.247338 11.4889 0.568878 11.4889ZM1.12539 1.12539H10.3635V10.3635H1.12539V1.12539Z" fill="white"/>
<path d="M14.5324 3.37744C14.2232 3.37744 13.9635 3.62478 13.9635 3.94632V13.9759H3.94632C3.63715 13.9759 3.37744 14.2232 3.37744 14.5448C3.37744 14.8539 3.62478 15.1136 3.94632 15.1136H14.5448C14.8539 15.1136 15.1136 14.8663 15.1136 14.5448V3.94632C15.1013 3.62478 14.8416 3.37744 14.5324 3.37744Z" fill="white"/>
</g>
<defs>
<clipPath id="clip0">
<rect width="15.1" height="15.1" fill="white"/>
</clipPath>
</defs>
</svg>
