<svg width="25" height="27" viewBox="0 0 25 27" fill="none" xmlns="http://www.w3.org/2000/svg">
<path d="M6.92483 14.37C7.16118 14.37 7.39752 14.3003 7.5866 14.1376C8.0593 13.7657 8.1302 13.1149 7.75205 12.65L4.20682 8.30366H22.2638C22.8547 8.30366 23.351 7.83881 23.351 7.2345C23.351 6.65344 22.8783 6.16534 22.2638 6.16534H4.13592L7.75205 1.72599C8.1302 1.26114 8.0593 0.610346 7.5866 0.238464C7.11391 -0.133419 6.45213 -0.0636906 6.07397 0.401162L1.1343 6.49074C0.968854 6.69992 0.897949 6.95559 0.897949 7.18802C0.897949 7.44369 0.968854 7.67611 1.1343 7.8853L6.07397 13.9749C6.28669 14.2305 6.59394 14.37 6.92483 14.37Z" fill="#6A6971"/>
<path d="M24.0131 19.0435L19.0734 12.9736C18.6953 12.5102 18.0335 12.4407 17.5608 12.8114C17.0881 13.1821 17.0172 13.8308 17.3954 14.2942L21.0115 18.7424H2.88359C2.29272 18.7424 1.79639 19.2057 1.79639 19.8081C1.79639 20.3873 2.26908 20.8738 2.88359 20.8738H20.9406L17.3954 25.2293C17.0172 25.6927 17.0881 26.3414 17.5608 26.712C17.7499 26.8742 17.9862 26.9437 18.2226 26.9437C18.5298 26.9437 18.8607 26.8047 19.0734 26.5499L24.0131 20.4799C24.1786 20.2714 24.2495 20.0166 24.2495 19.7849C24.2495 19.5069 24.1786 19.252 24.0131 19.0435Z" fill="#6A6971"/>
</svg>
