<svg width="28" height="17" viewBox="0 0 28 17" fill="none" xmlns="http://www.w3.org/2000/svg">
<path d="M26.9078 0H17.1463C16.5967 0 16.135 0.439706 16.135 1.01132C16.135 1.56096 16.5747 2.02265 17.1463 2.02265H24.6213L14.9698 11.6522L10.5507 7.23317C10.155 6.83743 9.51742 6.83743 9.14367 7.23317L1.18499 15.1699C0.78925 15.5656 0.78925 16.2032 1.18499 16.5769C1.38285 16.7748 1.64668 16.8627 1.88852 16.8627C2.13035 16.8627 2.39418 16.7748 2.59205 16.5769L9.82521 9.34376L14.2443 13.7628C14.64 14.1585 15.2776 14.1585 15.6513 13.7628L25.8965 3.51765V11.2345C25.8965 11.7841 26.3362 12.2238 26.9078 12.2238C27.4794 12.2238 27.9191 11.7841 27.9191 11.2345V1.01132C27.9191 0.439706 27.4574 0 26.9078 0Z" fill="#6A6971"/>
</svg>
