<svg width="25" height="19" viewBox="0 0 25 19" fill="none" xmlns="http://www.w3.org/2000/svg">
<path d="M24.1466 0.92408C24.1466 0.421863 23.7448 0 23.2225 0H0.92408C0.401774 0 0 0.401774 0 0.92408V2.29011V17.1959C0 17.6981 0.401774 18.12 0.92408 18.12H23.2426C23.7448 18.12 24.1667 17.7182 24.1667 17.1959V2.29011V0.92408H24.1466ZM22.2784 1.82807L12.0733 8.81894L1.86825 1.82807H22.2784ZM1.82807 16.2718V4.01774L11.551 10.6872C11.7117 10.7876 11.8925 10.8479 12.0733 10.8479C12.2541 10.8479 12.4349 10.7876 12.5956 10.6872L22.3185 4.01774V16.2718H1.82807Z" fill="#6A6971"/>
</svg>
