<svg width="28" height="26" viewBox="0 0 28 26" fill="none" xmlns="http://www.w3.org/2000/svg">
<path d="M26.1498 19.3367H22.8417V11.8147C22.8417 6.99035 19.1398 2.99305 14.4139 2.54015V0.905791C14.4139 0.413513 14.0201 0 13.5081 0C12.9961 0 12.6023 0.393822 12.6023 0.905791V2.55985C7.87645 3.01274 4.17452 6.99035 4.17452 11.8344V19.3564H0.905791C0.413513 19.3564 0 19.7502 0 20.2622C0 20.7544 0.393822 21.168 0.905791 21.168H8.80193L12.8977 25.2637C13.0749 25.4409 13.2915 25.5197 13.5278 25.5197C13.7641 25.5197 14.0004 25.4212 14.1579 25.2637L18.2537 21.168H26.1498C26.6421 21.168 27.0556 20.7741 27.0556 20.2622C27.0556 19.7502 26.6421 19.3367 26.1498 19.3367ZM21.0498 19.3367H6.00579V11.8147C6.00579 7.65984 9.37297 4.29266 13.5278 4.29266C17.6826 4.29266 21.0498 7.65984 21.0498 11.8147V19.3367Z" fill="#6A6971"/>
</svg>
