<svg width="27" height="25" viewBox="0 0 27 25" fill="none" xmlns="http://www.w3.org/2000/svg">
<path d="M13.4993 24.2493C20.5668 24.2493 26.1007 21.2855 26.1007 17.4927V6.75665C26.1007 2.96381 20.5668 0 13.4993 0C6.43177 0 0.897949 2.96381 0.897949 6.75665V17.4927C0.897949 21.2855 6.43177 24.2493 13.4993 24.2493ZM13.4993 22.3633C8.42146 22.3633 2.78401 20.3529 2.78401 17.4927V10.363C4.98096 12.2697 8.91888 13.5133 13.4993 13.5133C18.0797 13.5133 22.0177 12.2697 24.2146 10.363V17.4927C24.2146 20.3736 18.5772 22.3633 13.4993 22.3633ZM13.4993 1.88606C18.5772 1.88606 24.2146 3.89647 24.2146 6.75665C24.2146 9.61683 18.5772 11.6272 13.4993 11.6272C8.42146 11.6272 2.78401 9.61683 2.78401 6.75665C2.78401 3.89647 8.42146 1.88606 13.4993 1.88606Z" fill="#6A6971"/>
</svg>
