<svg width="44" height="27" viewBox="0 0 44 27" fill="none" xmlns="http://www.w3.org/2000/svg">
<path d="M1.61086 26.8601H17.1595C18.035 26.8601 18.7704 26.1597 18.7704 25.2492C18.7704 24.3737 18.0701 23.6383 17.1595 23.6383H5.2529L20.6265 8.29974L27.6654 15.3387C28.2958 15.969 29.3113 15.969 29.9067 15.3387L42.5838 2.69661C43.2141 2.06626 43.2141 1.05069 42.5838 0.45536C42.2686 0.140184 41.8483 0.000106812 41.4631 0.000106812C41.0779 0.000106812 40.6577 0.140184 40.3425 0.45536L28.8211 11.9768L21.7821 4.93786C21.1518 4.30751 20.1362 4.30751 19.5409 4.93786L3.22176 21.257V8.96511C3.22176 8.08962 2.52137 7.38923 1.61086 7.38923C0.700348 7.38923 -4.19617e-05 8.08962 -4.19617e-05 8.96511V25.2492C-4.19617e-05 26.1597 0.735371 26.8601 1.61086 26.8601Z" fill="#6A6971"/>
</svg>
