<svg width="98" height="121" viewBox="0 0 98 121" fill="none" xmlns="http://www.w3.org/2000/svg">
<g clip-path="url(#clip0)">
<path d="M28.1538 102.547C27.3519 102.547 26.5055 102.369 25.6591 101.924C23.209 100.632 22.5408 98.2709 22.3626 97.5582L20.3135 97.6918L20.2689 97.6473C20.1353 97.5582 16.6606 95.0636 16.126 94.2617C15.6806 93.549 15.8142 92.658 15.9033 92.3907L11.3149 85.1296C10.2904 85.1741 9.84489 85.5305 9.84489 86.4214V88.6042H9.39941V86.4214C9.39941 85.2632 10.0676 84.6841 11.404 84.6841H11.5377L16.3488 92.3016L16.3042 92.3907C16.3042 92.3907 16.0369 93.2817 16.4824 93.9944C16.8833 94.6181 19.4225 96.4891 20.4471 97.2464L22.7636 97.0682L22.8081 97.2909C22.8081 97.3355 23.2536 100.142 25.8819 101.523C27.8865 102.592 30.292 102.147 33.3212 100.142L33.3658 100.097H33.4103C33.4994 100.097 41.8743 100.053 48.7791 100.053V100.498C42.2307 100.498 34.3013 100.543 33.4994 100.543C32.5639 101.211 30.4702 102.547 28.1538 102.547Z" fill="#F32D00"/>
<path d="M28.9556 100.053C26.2828 100.053 24.0554 97.87 24.0554 95.1526C24.0554 92.4352 26.2382 90.2524 28.9556 90.2524C31.673 90.2524 33.8558 92.4352 33.8558 95.1526C33.8558 97.87 31.673 100.053 28.9556 100.053ZM28.9556 90.6979C26.5055 90.6979 24.5009 92.7025 24.5009 95.1526C24.5009 97.6027 26.5055 99.6073 28.9556 99.6073C31.4057 99.6073 33.4103 97.6027 33.4103 95.1526C33.4103 92.7025 31.4057 90.6979 28.9556 90.6979Z" fill="#F32D00"/>
<path d="M28.3765 101.033C25.57 101.033 23.2981 98.7611 23.2981 95.9546C23.2981 93.1481 25.57 90.8762 28.3765 90.8762C31.1829 90.8762 33.4548 93.1481 33.4548 95.9546C33.4548 98.7611 31.1829 101.033 28.3765 101.033ZM28.3765 91.3662C25.8373 91.3662 23.7436 93.4154 23.7436 95.9991C23.7436 98.5829 25.7927 100.632 28.3765 100.632C30.9602 100.632 33.0094 98.5829 33.0094 95.9991C33.0094 93.4154 30.9157 91.3662 28.3765 91.3662Z" fill="#F32D00"/>
<path d="M28.1093 101.033C25.481 101.033 23.3428 98.8946 23.3428 96.2663C23.3428 93.638 25.481 91.4998 28.1093 91.4998C30.7376 91.4998 32.8759 93.638 32.8759 96.2663C32.8759 98.8946 30.7376 101.033 28.1093 101.033ZM28.1093 91.9452C25.7038 91.9452 23.7882 93.9053 23.7882 96.2663C23.7882 98.6273 25.7483 100.587 28.1093 100.587C30.4703 100.587 32.4304 98.6273 32.4304 96.2663C32.4304 93.9053 30.4703 91.9452 28.1093 91.9452Z" fill="#F32D00"/>
<path d="M45.5271 110.789C35.2812 110.789 28.0646 110.031 19.4225 104.018C10.2458 97.5582 8.46387 89.1833 8.46387 89.0942L8.90934 89.0051C8.90934 89.0942 10.6467 97.3354 19.6897 103.617C29.0892 110.165 36.8404 110.432 48.779 110.299V110.744C47.6653 110.789 46.5962 110.789 45.5271 110.789Z" fill="#F32D00"/>
<path d="M69.4044 102.547C67.0879 102.547 64.9497 101.166 64.0587 100.587C63.2569 100.587 55.3275 100.543 48.7791 100.543V100.097C55.6393 100.097 64.0587 100.142 64.1478 100.142H64.2369L64.2815 100.186C67.2661 102.146 69.7162 102.592 71.7208 101.567C74.3491 100.186 74.7946 97.3799 74.7946 97.3354L74.8391 97.1126L77.1556 97.2908C78.1802 96.578 80.7194 94.6625 81.1203 94.0389C81.5657 93.3261 81.2985 92.4352 81.2985 92.4352L81.2539 92.3461L86.065 84.7285H86.1986C87.5351 84.7285 88.2033 85.3076 88.2033 86.4659V88.6487H87.7578V86.4659C87.7578 85.5749 87.3123 85.2185 86.2877 85.174L81.6994 92.4352C81.7885 92.747 81.9221 93.5934 81.4766 94.3061C80.9421 95.1525 77.4674 97.6026 77.3338 97.6917L77.2447 97.7363L75.1955 97.6026C75.0619 98.3154 74.3937 100.676 71.9436 101.968C71.0526 102.369 70.2062 102.547 69.4044 102.547Z" fill="#F32D00"/>
<path d="M68.5581 100.053C65.8853 100.053 63.658 97.87 63.658 95.1526C63.658 92.4352 65.8408 90.2524 68.5581 90.2524C71.2755 90.2524 73.4583 92.4352 73.4583 95.1526C73.4583 97.87 71.2755 100.053 68.5581 100.053ZM68.5581 90.6979C66.1081 90.6979 64.1034 92.7025 64.1034 95.1526C64.1034 97.6027 66.1081 99.6073 68.5581 99.6073C71.0082 99.6073 73.0129 97.6027 73.0129 95.1526C73.0129 92.7025 71.0082 90.6979 68.5581 90.6979Z" fill="#F32D00"/>
<path d="M69.1371 101.033C66.3306 101.033 64.1033 98.7611 64.1033 95.9546C64.1033 93.1481 66.3752 90.8762 69.1371 90.8762C71.8991 90.8762 74.171 93.1481 74.171 95.9546C74.171 98.7611 71.9436 101.033 69.1371 101.033ZM69.1371 91.3662C66.5979 91.3662 64.5487 93.4154 64.5487 95.9991C64.5487 98.5829 66.5979 100.632 69.1371 100.632C71.6763 100.632 73.7255 98.5829 73.7255 95.9991C73.7255 93.4154 71.6763 91.3662 69.1371 91.3662Z" fill="#F32D00"/>
<path d="M69.4489 101.033C66.8206 101.033 64.6824 98.8946 64.6824 96.2663C64.6824 93.638 66.8206 91.4998 69.4489 91.4998C72.0772 91.4998 74.2155 93.638 74.2155 96.2663C74.2155 98.8946 72.0772 101.033 69.4489 101.033ZM69.4489 91.9452C67.0879 91.9452 65.1278 93.9053 65.1278 96.2663C65.1278 98.6273 67.0434 100.587 69.4489 100.587C71.8545 100.587 73.77 98.6273 73.77 96.2663C73.77 93.9053 71.8099 91.9452 69.4489 91.9452Z" fill="#F32D00"/>
<path d="M51.9866 110.789C50.9174 110.789 49.8483 110.789 48.7346 110.789V110.343C60.6733 110.477 68.4245 110.21 77.8239 103.661C86.867 97.3356 88.6043 89.1389 88.6043 89.0498L89.0498 89.1389C89.0498 89.228 87.2679 97.6029 78.0912 104.062C69.4936 109.987 62.2324 110.789 51.9866 110.789Z" fill="#F32D00"/>
<path d="M11.1813 84.9515C11.1813 84.7288 11.1368 64.7271 11.9832 47.1755C12.785 30.1585 15.7697 15.948 44.3244 14.6116V15.057C16.1706 16.3489 13.2305 30.3813 12.4286 47.1755C11.5822 64.7271 11.6268 84.7288 11.6268 84.9515H11.1813Z" fill="#F32D00"/>
<path d="M85.0404 45.9728C84.194 30.4258 81.1203 16.3489 53.1892 15.057V14.6116C81.4767 15.9034 84.595 30.2031 85.4414 45.9728H85.0404Z" fill="#F32D00"/>
<path d="M69.5825 89.2279H27.9755C21.6943 89.2279 16.616 84.1495 16.616 77.8684V66.7761H17.0614V77.8684C17.0614 83.8822 21.9616 88.7824 27.9755 88.7824H69.6271C75.6409 88.7824 80.5411 83.8822 80.5411 77.8684V45.1708C80.5411 39.1569 75.6409 34.2568 69.6271 34.2568H27.9755C21.9616 34.2568 17.0614 39.1569 17.0614 45.1708V52.8329H16.616V45.1708C16.616 38.8897 21.6943 33.8113 27.9755 33.8113H69.6271C75.9082 33.8113 80.9866 38.8897 80.9866 45.1708V77.8684C80.942 84.105 75.8637 89.2279 69.5825 89.2279Z" fill="#F32D00"/>
<path d="M65.4843 84.0159H33.7667C27.4856 84.0159 22.4072 78.9376 22.4072 72.6564V51.0956C22.4072 44.8145 27.4856 39.7361 33.7667 39.7361H65.4843C71.7655 39.7361 76.8438 44.8145 76.8438 51.0956V72.6564C76.8438 78.893 71.7655 84.0159 65.4843 84.0159ZM33.7667 40.1816C27.7529 40.1816 22.8527 45.0817 22.8527 51.0956V72.6564C22.8527 78.6703 27.7529 83.5705 33.7667 83.5705H65.4843C71.4982 83.5705 76.3984 78.6703 76.3984 72.6564V51.0956C76.3984 45.0817 71.4982 40.1816 65.4843 40.1816H33.7667Z" fill="#F32D00"/>
<path d="M61.9651 84.0159H33.7667C27.4856 84.0159 22.4072 78.9376 22.4072 72.6564V51.0956C22.4072 44.8145 27.4856 39.7361 33.7667 39.7361H61.9205C68.2017 39.7361 73.2801 44.8145 73.2801 51.0956V72.6564C73.3246 78.893 68.2017 84.0159 61.9651 84.0159ZM33.7667 40.1816C27.7529 40.1816 22.8527 45.0817 22.8527 51.0956V72.6564C22.8527 78.6703 27.7529 83.5705 33.7667 83.5705H61.9205C67.9344 83.5705 72.8346 78.6703 72.8346 72.6564V51.0956C72.8346 45.0817 67.9344 40.1816 61.9205 40.1816H33.7667Z" fill="#F32D00"/>
<path d="M20.2244 69.6716H19.1998C17.7298 69.6716 16.5715 68.5134 16.5715 67.0433H17.017C17.017 68.2461 17.997 69.2261 19.1998 69.2261H20.2244C21.4272 69.2261 22.4072 68.2461 22.4072 67.0433V52.5655C22.4072 51.3628 21.4272 50.3827 20.2244 50.3827H19.1998C17.997 50.3827 17.017 51.3628 17.017 52.5655H16.5715C16.5715 51.0955 17.7298 49.9373 19.1998 49.9373H20.2244C21.6945 49.9373 22.8527 51.0955 22.8527 52.5655V67.0433C22.8527 68.5134 21.6945 69.6716 20.2244 69.6716Z" fill="#F32D00"/>
<path d="M16.3042 67.0435H16.126C14.4332 67.0435 13.0522 65.6625 13.0522 63.9697V55.5503C13.0522 53.8575 14.4332 52.4766 16.126 52.4766H16.3042C17.997 52.4766 19.3779 53.8575 19.3779 55.5503V63.9697C19.3779 65.6625 17.997 67.0435 16.3042 67.0435ZM16.126 53.0111C14.7005 53.0111 13.4977 54.1694 13.4977 55.6394V64.0588C13.4977 65.4843 14.6559 66.6871 16.126 66.6871H16.3042C17.7297 66.6871 18.9325 65.5289 18.9325 64.0588V55.6394C18.9325 54.2139 17.7742 53.0111 16.3042 53.0111H16.126Z" fill="#F32D00"/>
<path d="M16.126 67.0435C14.4332 67.0435 13.0522 65.6625 13.0522 63.9697V55.5503C13.0522 53.8575 14.4332 52.4766 16.126 52.4766C17.8188 52.4766 19.1998 53.8575 19.1998 55.5503V63.9697C19.1998 65.6625 17.8188 67.0435 16.126 67.0435ZM16.126 53.0111C14.7005 53.0111 13.4977 54.1694 13.4977 55.6394V64.0588C13.4977 65.4843 14.6559 66.6871 16.126 66.6871C17.5515 66.6871 18.7543 65.5289 18.7543 64.0588V55.6394C18.7543 54.1694 17.5961 53.0111 16.126 53.0111Z" fill="#F32D00"/>
<path d="M86.2877 83.7931C85.3077 83.7931 84.194 83.6149 83.2585 82.9467C81.2984 81.5212 80.5411 78.7147 80.4966 78.581L80.9421 78.4474C80.9421 78.492 81.6994 81.2539 83.5258 82.5903C85.0849 83.704 87.3568 83.303 87.9805 83.1694V68.0234C87.9805 65.8406 87.3568 64.1923 86.1095 63.1232C84.0158 61.2968 80.8084 61.7868 80.7639 61.7868L80.6748 61.3413C80.8084 61.3413 84.1049 60.8513 86.3768 62.8114C87.7132 63.9696 88.3814 65.7069 88.3814 68.0234V83.5258L88.2032 83.5703C88.2032 83.5703 87.3568 83.7931 86.2877 83.7931Z" fill="#F32D00"/>
<path d="M88.0696 82.2339C87.2232 82.2339 86.555 81.9667 86.065 81.4766C85.2631 80.6748 85.085 79.4275 85.085 78.492V68.4689C85.085 66.9543 85.4413 65.8406 86.1541 65.1724C86.8223 64.5042 87.6242 64.5487 87.6242 64.5487L87.5796 64.9942V64.7714V64.9942C87.5796 64.9942 86.9559 64.9496 86.4214 65.4842C85.7977 66.0633 85.5304 67.0434 85.5304 68.4243V78.4474C85.5304 79.2938 85.6641 80.4075 86.3768 81.1203C86.8223 81.5657 87.446 81.7439 88.2033 81.7439V82.1894C88.1587 82.2339 88.1142 82.2339 88.0696 82.2339Z" fill="#F32D00"/>
<path d="M84.5949 51.7639H80.4966V45.75H84.5949C85.8422 45.75 86.8668 46.7746 86.8668 48.0219V49.5365C86.8668 50.7838 85.8422 51.7639 84.5949 51.7639ZM80.9421 51.3184H84.5949C85.6195 51.3184 86.4213 50.5165 86.4213 49.492V47.9774C86.4213 46.9528 85.6195 46.1509 84.5949 46.1509H80.9421V51.3184Z" fill="#F32D00"/>
<path d="M84.5949 61.475H80.4966V55.1047H84.5949C85.8422 55.1047 86.8668 56.1293 86.8668 57.3766V59.2031C86.8668 60.4504 85.8422 61.475 84.5949 61.475ZM80.9421 61.0295H84.5949C85.6195 61.0295 86.4213 60.2277 86.4213 59.2031V57.3766C86.4213 56.3521 85.6195 55.5502 84.5949 55.5502H80.9421V61.0295Z" fill="#F32D00"/>
<path d="M85.6195 51.4519H85.1741V55.4166H85.6195V51.4519Z" fill="#F32D00"/>
<path d="M86.3324 83.5703H85.887V84.9513H86.3324V83.5703Z" fill="#F32D00"/>
<path d="M88.1588 83.3923H87.7134V86.1097H88.1588V83.3923Z" fill="#F32D00"/>
<path d="M48.7791 120.5C40.9388 120.5 27.7529 120.5 15.636 112.615C3.65287 104.819 0.0890943 93.1479 0.0445471 93.0142L0 92.7915L9.75582 88.2922L9.80037 88.5595C11.0031 93.1033 14.3442 97.959 18.4871 101.255C28.7329 109.274 39.0233 109.185 46.5518 109.096C47.3091 109.096 48.0218 109.096 48.7346 109.096V109.541C48.0218 109.541 47.3091 109.541 46.5518 109.541C38.9342 109.63 28.5547 109.719 18.2198 101.612C14.0769 98.3599 10.7359 93.5488 9.44399 88.9604L0.534566 93.1033C1.02458 94.6179 4.90019 105.087 15.8588 112.259C27.842 120.099 40.9388 120.099 48.7346 120.099L48.7791 120.5Z" fill="#F32D00"/>
<path d="M48.7791 120.5V120.054C56.5748 120.054 69.6717 120.054 81.6549 112.214C92.658 105.042 96.4891 94.5735 96.9791 93.0589L88.0696 88.916C86.7778 93.4598 83.4367 98.3154 79.2939 101.567C68.9589 109.72 58.5349 109.586 50.9619 109.497C50.2046 109.497 49.4918 109.497 48.7791 109.497V109.051C49.4918 109.051 50.2046 109.051 50.9619 109.051C58.4903 109.14 68.8253 109.229 79.0266 101.211C83.1695 97.9591 86.5105 93.1034 87.7133 88.5151L87.8024 88.2478L97.5582 92.7471L97.5136 92.9252C97.4691 93.0589 93.9053 104.73 81.9221 112.526C69.8053 120.5 56.6194 120.5 48.7791 120.5Z" fill="#F32D00"/>
<path d="M48.0219 119.297C32.8313 119.297 20.4472 115.6 12.1614 108.561C4.49933 102.013 1.06921 92.658 1.02466 92.5689L1.42558 92.4353C1.47013 92.5244 4.85571 101.79 12.4287 108.25C20.759 115.333 33.3213 119.03 48.7346 118.896V119.342C48.5119 119.297 48.2892 119.297 48.0219 119.297Z" fill="#F32D00"/>
<path d="M49.2692 119.297C49.0464 119.297 48.7791 119.297 48.5564 119.297V118.852C64.0143 118.985 76.532 115.288 84.8623 108.205C92.4799 101.746 95.8209 92.5243 95.8655 92.3906L96.2664 92.5243C96.2219 92.6134 92.8363 101.968 85.1296 108.517C76.8438 115.6 64.4597 119.297 49.2692 119.297Z" fill="#F32D00"/>
<path d="M48.779 28.5992C46.1953 28.5992 44.1016 26.5055 44.1016 23.9217C44.1016 21.4271 48.3781 10.0676 48.5563 9.57753L48.779 9.04297L49.0018 9.57753C49.1799 10.0676 53.501 21.4271 53.501 23.8772C53.4565 26.4609 51.3628 28.5992 48.779 28.5992ZM48.779 10.2903C47.8881 12.6513 44.547 21.828 44.547 23.9217C44.547 26.2382 46.4626 28.1537 48.779 28.1537C51.0955 28.1537 53.011 26.2382 53.011 23.9217C53.011 21.7835 49.67 12.6513 48.779 10.2903Z" fill="#F32D00"/>
<path d="M51.9419 18.3089L51.63 17.997C52.521 17.1952 53.011 16.037 53.011 14.8787C53.011 12.785 49.67 3.65287 48.779 1.24732C47.8881 3.60832 44.547 12.785 44.547 14.8787C44.547 16.0815 45.0371 17.1952 45.928 17.997L45.6162 18.3089C44.6361 17.4179 44.1016 16.1706 44.1016 14.8342C44.1016 12.3396 48.3781 0.980037 48.5563 0.534566L48.779 0L49.0018 0.534566C49.1799 1.02458 53.501 12.3841 53.501 14.8342C53.4565 16.1706 52.8774 17.4625 51.9419 18.3089Z" fill="#F32D00"/>
<path d="M18.6653 28.4656L18.2644 28.2428C18.309 28.1092 23.6992 16.8833 43.0772 16.8833V17.3288C24.011 17.3288 18.7099 28.3319 18.6653 28.4656Z" fill="#F32D00"/>
<path d="M82.7685 38.7116C81.744 31.1831 78.3138 26.3275 78.2693 26.2829L78.6257 26.0156C78.6702 26.0602 82.1894 31.0049 83.214 38.667L82.7685 38.7116Z" fill="#F32D00"/>
<path d="M36.0112 70.8601H45.7711C46.3206 70.8601 46.7823 70.4205 46.7823 69.8489C46.7823 69.2994 46.3426 68.8378 45.7711 68.8378H38.2973L47.9473 59.2098L52.3656 63.6281C52.7613 64.0238 53.3988 64.0238 53.7725 63.6281L61.7299 55.6927C62.1255 55.297 62.1255 54.6596 61.7299 54.2859C61.532 54.088 61.2682 54.0001 61.0264 54.0001C60.7846 54.0001 60.5209 54.088 60.323 54.2859L53.091 61.5179L48.6727 57.0995C48.277 56.7039 47.6396 56.7039 47.2659 57.0995L37.0224 67.343V59.6274C37.0224 59.0779 36.5827 58.6383 36.0112 58.6383C35.4397 58.6383 35 59.0779 35 59.6274V69.8489C35 70.4205 35.4617 70.8601 36.0112 70.8601Z" fill="#F32D00"/>
</g>
<defs>
<clipPath id="clip0">
<rect width="97.5582" height="120.5" fill="white"/>
</clipPath>
</defs>
</svg>
