<svg width="179" height="54" viewBox="0 0 179 54" fill="none" xmlns="http://www.w3.org/2000/svg">
<g clip-path="url(#clip0)">
<path d="M0.389855 53.8002C0 53.8002 0 53.4104 0 53.4104C0 53.4104 3.11884 38.206 22.6116 38.206C32.358 38.206 35.4768 35.477 38.5957 32.3582C41.3246 29.6292 44.4435 26.9002 52.6304 26.1205C58.0884 25.7307 62.3768 26.5104 65.4957 27.2901C71.7333 28.4596 75.242 29.2394 86.5478 21.4423C99.0232 12.8654 104.481 18.7133 110.329 25.3408C112.668 28.0698 115.007 30.4089 117.736 32.3582C118.906 33.1379 119.686 33.1379 120.465 32.7481C123.584 31.5785 125.923 25.7307 128.262 19.1031C131.381 10.5263 135.28 1.1698 141.907 0.390086C149.704 -0.779479 153.213 5.06835 156.332 9.74661C158.281 12.8654 159.841 15.5944 162.57 15.9843C168.807 17.1539 176.994 3.89878 177.384 3.89878C177.384 3.50893 177.774 3.50893 177.774 3.89878C178.164 3.89878 178.164 4.28864 177.774 4.28864C177.384 4.67849 169.197 17.9336 162.18 16.764C159.451 16.3741 157.501 13.2553 155.552 10.1365C152.433 5.4582 149.315 0.000231385 141.907 1.1698C136.059 1.94951 132.161 11.306 129.042 19.493C126.313 26.5104 123.974 32.3582 120.465 33.5278C119.296 33.9176 118.126 33.9176 116.957 33.1379C113.838 31.1886 111.499 28.8495 109.159 26.1205C103.312 19.8828 98.6334 14.035 86.5478 22.6118C74.8522 30.4089 70.9536 30.0191 64.716 28.8495C61.5971 28.0698 57.6986 27.6799 51.8507 28.0698C44.0536 28.4596 41.3246 31.1886 38.5957 33.9176C35.8667 35.8669 32.7478 38.9857 22.6116 38.9857C3.89855 38.9857 1.16957 53.0205 0.77971 53.4104C0.77971 53.8002 0.77971 53.8002 0.389855 53.8002Z" fill="url(#paint0_linear)"/>
</g>
<defs>
<linearGradient id="paint0_linear" x1="89.0332" y1="0.23877" x2="89.0332" y2="53.8002" gradientUnits="userSpaceOnUse">
<stop stop-color="#CEFC84"/>
<stop offset="1" stop-color="#06B5CA"/>
</linearGradient>
<clipPath id="clip0">
<rect width="178.164" height="53.8" fill="white"/>
</clipPath>
</defs>
</svg>
