<svg width="26" height="25" viewBox="0 0 26 25" fill="none" xmlns="http://www.w3.org/2000/svg">
<g clip-path="url(#clip0)">
<path d="M24.7994 8.68812H16.5815L14.032 0.792079C13.8835 0.321782 13.4627 0 12.9677 0C12.4726 0 12.0518 0.321782 11.9033 0.792079L9.35381 8.68812H1.13599C0.640935 8.68812 0.220143 9.0099 0.0716285 9.45545C-0.0768863 9.92574 0.0716285 10.4208 0.467668 10.7178L7.12608 15.5941L4.57658 23.5149C4.42806 23.9851 4.60133 24.4802 4.99737 24.7772C5.39341 25.0743 5.93797 25.0495 6.33401 24.7772L12.9924 19.901L19.6508 24.7772C19.8489 24.9257 20.0716 25 20.3192 25C20.5419 25 20.7895 24.9257 20.9875 24.7772C21.3835 24.4802 21.5568 23.9851 21.4083 23.5149L18.8093 15.6188L25.4677 10.7426C25.8637 10.4455 26.0122 9.95049 25.8637 9.4802C25.7152 9.0099 25.2944 8.68812 24.7994 8.68812ZM16.8043 14.2822C16.4083 14.5792 16.2598 15.0743 16.4083 15.5446L18.1409 20.9158L13.636 17.599C13.438 17.4505 13.2152 17.3762 12.9677 17.3762C12.7201 17.3762 12.4974 17.4505 12.2994 17.599L7.7944 20.8911L9.52707 15.5198C9.67559 15.0495 9.50232 14.5545 9.13103 14.2574L4.55183 10.9406H10.1459C10.6409 10.9406 11.0617 10.6188 11.2102 10.1485L12.9429 4.80198L14.6756 10.1485C14.8241 10.6188 15.2696 10.9406 15.7399 10.9406H21.334L16.8043 14.2822Z" fill="white"/>
</g>
<defs>
<clipPath id="clip0">
<rect width="25.9158" height="25" fill="white"/>
</clipPath>
</defs>
</svg>
