<svg width="20" height="22" viewBox="0 0 20 22" fill="none" xmlns="http://www.w3.org/2000/svg">
<g clip-path="url(#clip0)">
<path d="M5.38583 21.3H14.4541C17.4228 21.3 19.84 18.6836 19.84 15.4702V6.21616C19.84 5.77716 19.5155 5.42597 19.0938 5.42597H15.103V0.807749C15.103 0.368755 14.7786 0 14.373 0H5.46695C5.06139 0 4.72072 0.351195 4.72072 0.807749V5.42597H0.74623C0.34067 5.42597 0 5.77716 0 6.21616V15.4702C0 18.6836 2.41714 21.3 5.38583 21.3ZM6.21317 1.59794H13.6268V5.42597H6.21317V1.59794ZM1.47624 7.02391H5.46695H14.3568H18.3475V15.4702C18.3475 17.8056 16.5955 19.7021 14.4379 19.7021H5.38583C3.22826 19.7021 1.47624 17.8056 1.47624 15.4702V7.02391Z" fill="#1ED6DC"/>
</g>
<defs>
<clipPath id="clip0">
<rect width="19.84" height="21.3" fill="white"/>
</clipPath>
</defs>
</svg>
