<svg width="22" height="22" viewBox="0 0 22 22" fill="none" xmlns="http://www.w3.org/2000/svg">
<g clip-path="url(#clip0)">
<path d="M5.82984 21.3H7.9897C8.42869 21.3 8.79745 20.9488 8.79745 20.4922C8.79745 20.0533 8.44625 19.6845 7.9897 19.6845H5.82984C3.4944 19.6845 1.59794 17.788 1.59794 15.4526V7.02391H5.91764H15.5404H19.8601V9.88615C19.8601 10.3251 20.2113 10.6763 20.6679 10.6763C21.1244 10.6763 21.4756 10.3251 21.4756 9.88615V6.21616C21.4756 5.77716 21.1244 5.40841 20.6679 5.40841H16.3482V0.807749C16.3482 0.368755 15.997 0 15.558 0H5.91764C5.47865 0 5.10989 0.351195 5.10989 0.807749V5.42597H0.80775C0.368755 5.42597 0 5.77716 0 6.23372V15.4877C0 18.6836 2.61641 21.3 5.82984 21.3ZM6.72539 1.59794H14.7502V5.42597H6.72539V1.59794Z" fill="#E9001A"/>
<path d="M20.4746 13.802C20.1585 13.4859 19.6493 13.4859 19.3508 13.802L17.0856 16.0672L14.8379 13.802C14.5218 13.4859 14.0126 13.4859 13.7141 13.802C13.398 14.1181 13.398 14.6273 13.7141 14.9258L15.9793 17.191L13.6965 19.4387C13.3805 19.7548 13.3805 20.264 13.6965 20.5625C13.8546 20.7205 14.0653 20.7908 14.2584 20.7908C14.4516 20.7908 14.6623 20.7205 14.8204 20.5625L17.0856 18.2973L19.3508 20.5625C19.5088 20.7205 19.7195 20.7908 19.9127 20.7908C20.1059 20.7908 20.3166 20.7205 20.4746 20.5625C20.7907 20.2464 20.7907 19.7372 20.4746 19.4387L18.2094 17.1735L20.4746 14.9258C20.7907 14.6273 20.7907 14.1181 20.4746 13.802Z" fill="#E9001A"/>
</g>
<defs>
<clipPath id="clip0">
<rect width="21.4756" height="21.3" fill="white"/>
</clipPath>
</defs>
</svg>
