<svg width="28" height="17" viewBox="0 0 28 17" fill="none" xmlns="http://www.w3.org/2000/svg">
<path d="M1.01121 16.8601H10.7711C11.3206 16.8601 11.7823 16.4205 11.7823 15.8489C11.7823 15.2994 11.3426 14.8378 10.7711 14.8378L3.29731 14.8378L12.9473 5.20978L17.3656 9.62811C17.7613 10.0238 18.3988 10.0238 18.7725 9.62811L26.7299 1.6927C27.1255 1.29703 27.1255 0.659557 26.7299 0.285868C26.532 0.0880318 26.2682 0.000106812 26.0264 0.000106812C25.7846 0.000106812 25.5209 0.0880318 25.323 0.285868L18.091 7.51786L13.6727 3.09953C13.277 2.70386 12.6396 2.70386 12.2659 3.09953L2.02237 13.343V5.62743C2.02237 5.07789 1.58273 4.63826 1.01121 4.63826C0.43968 4.63826 4.3869e-05 5.07789 4.3869e-05 5.62743V15.8489C4.3869e-05 16.4205 0.46166 16.8601 1.01121 16.8601Z" fill="#F32D00"/>
</svg>
