<svg width="32" height="32" viewBox="0 0 32 32" fill="none" xmlns="http://www.w3.org/2000/svg">
<g clip-path="url(#clip0)">
<path d="M8.56686 31.3H11.7407C12.3858 31.3 12.9277 30.7839 12.9277 30.113C12.9277 29.4679 12.4116 28.926 11.7407 28.926H8.56686C5.13496 28.926 2.34815 26.1392 2.34815 22.7073V10.3215H8.69588H22.8364H29.1841V14.5275C29.1841 15.1726 29.7002 15.6887 30.3711 15.6887C31.042 15.6887 31.5581 15.1726 31.5581 14.5275V9.13454C31.5581 8.48945 31.042 7.94757 30.3711 7.94757H24.0233V1.18697C24.0233 0.54188 23.5073 0 22.8622 0H8.69588C8.05079 0 7.50891 0.516076 7.50891 1.18697V7.97337H1.18697C0.54188 7.97337 0 8.48945 0 9.16035V22.7589C0 27.4552 3.84477 31.3 8.56686 31.3ZM9.88286 2.34815H21.6752V7.97337H9.88286V2.34815Z" fill="#6A6971"/>
<path d="M30.0869 20.2817C29.6225 19.8172 28.8742 19.8172 28.4355 20.2817L25.1068 23.6104L21.8039 20.2817C21.3395 19.8172 20.5911 19.8172 20.1525 20.2817C19.688 20.7462 19.688 21.4945 20.1525 21.9331L23.4812 25.2618L20.1267 28.5647C19.6622 29.0292 19.6622 29.7775 20.1267 30.2162C20.3589 30.4484 20.6686 30.5516 20.9524 30.5516C21.2362 30.5516 21.5459 30.4484 21.7781 30.2162L25.1068 26.8875L28.4355 30.2162C28.6677 30.4484 28.9774 30.5516 29.2612 30.5516C29.5451 30.5516 29.8547 30.4484 30.0869 30.2162C30.5514 29.7517 30.5514 29.0034 30.0869 28.5647L26.7583 25.236L30.0869 21.9331C30.5514 21.4945 30.5514 20.7462 30.0869 20.2817Z" fill="#6A6971"/>
</g>
<defs>
<clipPath id="clip0">
<rect width="31.558" height="31.3" fill="white"/>
</clipPath>
</defs>
</svg>
