<svg width="98" height="121" viewBox="0 0 98 121" fill="none" xmlns="http://www.w3.org/2000/svg">
<g clip-path="url(#clip0)">
<path d="M28.1538 102.547C27.3519 102.547 26.5055 102.369 25.6591 101.924C23.209 100.632 22.5408 98.2709 22.3626 97.5582L20.3135 97.6918L20.2689 97.6473C20.1353 97.5582 16.6606 95.0636 16.126 94.2617C15.6806 93.549 15.8142 92.658 15.9033 92.3907L11.3149 85.1296C10.2904 85.1741 9.84489 85.5305 9.84489 86.4214V88.6042H9.39941V86.4214C9.39941 85.2632 10.0676 84.6841 11.404 84.6841H11.5377L16.3488 92.3016L16.3042 92.3907C16.3042 92.3907 16.0369 93.2817 16.4824 93.9944C16.8833 94.6181 19.4225 96.4891 20.4471 97.2464L22.7636 97.0682L22.8081 97.2909C22.8081 97.3355 23.2536 100.142 25.8819 101.523C27.8865 102.592 30.292 102.147 33.3212 100.142L33.3658 100.097H33.4103C33.4994 100.097 41.8743 100.053 48.7791 100.053V100.498C42.2307 100.498 34.3013 100.543 33.4994 100.543C32.5639 101.211 30.4702 102.547 28.1538 102.547Z" fill="#9D5AEE"/>
<path d="M28.9556 100.053C26.2828 100.053 24.0554 97.87 24.0554 95.1526C24.0554 92.4352 26.2382 90.2524 28.9556 90.2524C31.673 90.2524 33.8558 92.4352 33.8558 95.1526C33.8558 97.87 31.673 100.053 28.9556 100.053ZM28.9556 90.6979C26.5055 90.6979 24.5009 92.7025 24.5009 95.1526C24.5009 97.6027 26.5055 99.6073 28.9556 99.6073C31.4057 99.6073 33.4103 97.6027 33.4103 95.1526C33.4103 92.7025 31.4057 90.6979 28.9556 90.6979Z" fill="#9D5AEE"/>
<path d="M28.3765 101.033C25.57 101.033 23.2981 98.7611 23.2981 95.9546C23.2981 93.1481 25.57 90.8762 28.3765 90.8762C31.1829 90.8762 33.4548 93.1481 33.4548 95.9546C33.4548 98.7611 31.1829 101.033 28.3765 101.033ZM28.3765 91.3662C25.8373 91.3662 23.7436 93.4154 23.7436 95.9991C23.7436 98.5829 25.7927 100.632 28.3765 100.632C30.9602 100.632 33.0094 98.5829 33.0094 95.9991C33.0094 93.4154 30.9157 91.3662 28.3765 91.3662Z" fill="#9D5AEE"/>
<path d="M28.1093 101.033C25.481 101.033 23.3428 98.8946 23.3428 96.2663C23.3428 93.638 25.481 91.4998 28.1093 91.4998C30.7376 91.4998 32.8759 93.638 32.8759 96.2663C32.8759 98.8946 30.7376 101.033 28.1093 101.033ZM28.1093 91.9452C25.7038 91.9452 23.7882 93.9053 23.7882 96.2663C23.7882 98.6273 25.7483 100.587 28.1093 100.587C30.4703 100.587 32.4304 98.6273 32.4304 96.2663C32.4304 93.9053 30.4703 91.9452 28.1093 91.9452Z" fill="#9D5AEE"/>
<path d="M45.5271 110.789C35.2812 110.789 28.0646 110.031 19.4225 104.018C10.2458 97.5582 8.46387 89.1833 8.46387 89.0942L8.90934 89.0051C8.90934 89.0942 10.6467 97.3354 19.6897 103.617C29.0892 110.165 36.8404 110.432 48.779 110.299V110.744C47.6653 110.789 46.5962 110.789 45.5271 110.789Z" fill="#9D5AEE"/>
<path d="M69.4044 102.547C67.0879 102.547 64.9497 101.166 64.0587 100.587C63.2569 100.587 55.3275 100.543 48.7791 100.543V100.097C55.6393 100.097 64.0587 100.142 64.1478 100.142H64.2369L64.2815 100.186C67.2661 102.146 69.7162 102.592 71.7208 101.567C74.3491 100.186 74.7946 97.3799 74.7946 97.3354L74.8391 97.1126L77.1556 97.2908C78.1802 96.578 80.7194 94.6625 81.1203 94.0389C81.5657 93.3261 81.2985 92.4352 81.2985 92.4352L81.2539 92.3461L86.065 84.7285H86.1986C87.5351 84.7285 88.2033 85.3076 88.2033 86.4659V88.6487H87.7578V86.4659C87.7578 85.5749 87.3123 85.2185 86.2877 85.174L81.6994 92.4352C81.7885 92.747 81.9221 93.5934 81.4766 94.3061C80.9421 95.1525 77.4674 97.6026 77.3338 97.6917L77.2447 97.7363L75.1955 97.6026C75.0619 98.3154 74.3937 100.676 71.9436 101.968C71.0526 102.369 70.2062 102.547 69.4044 102.547Z" fill="#9D5AEE"/>
<path d="M68.5581 100.053C65.8853 100.053 63.658 97.87 63.658 95.1526C63.658 92.4352 65.8408 90.2524 68.5581 90.2524C71.2755 90.2524 73.4583 92.4352 73.4583 95.1526C73.4583 97.87 71.2755 100.053 68.5581 100.053ZM68.5581 90.6979C66.1081 90.6979 64.1034 92.7025 64.1034 95.1526C64.1034 97.6027 66.1081 99.6073 68.5581 99.6073C71.0082 99.6073 73.0129 97.6027 73.0129 95.1526C73.0129 92.7025 71.0082 90.6979 68.5581 90.6979Z" fill="#9D5AEE"/>
<path d="M69.1371 101.033C66.3306 101.033 64.1033 98.7611 64.1033 95.9546C64.1033 93.1481 66.3752 90.8762 69.1371 90.8762C71.8991 90.8762 74.171 93.1481 74.171 95.9546C74.171 98.7611 71.9436 101.033 69.1371 101.033ZM69.1371 91.3662C66.5979 91.3662 64.5487 93.4154 64.5487 95.9991C64.5487 98.5829 66.5979 100.632 69.1371 100.632C71.6763 100.632 73.7255 98.5829 73.7255 95.9991C73.7255 93.4154 71.6763 91.3662 69.1371 91.3662Z" fill="#9D5AEE"/>
<path d="M69.4489 101.033C66.8206 101.033 64.6824 98.8946 64.6824 96.2663C64.6824 93.638 66.8206 91.4998 69.4489 91.4998C72.0772 91.4998 74.2155 93.638 74.2155 96.2663C74.2155 98.8946 72.0772 101.033 69.4489 101.033ZM69.4489 91.9452C67.0879 91.9452 65.1278 93.9053 65.1278 96.2663C65.1278 98.6273 67.0434 100.587 69.4489 100.587C71.8545 100.587 73.77 98.6273 73.77 96.2663C73.77 93.9053 71.8099 91.9452 69.4489 91.9452Z" fill="#9D5AEE"/>
<path d="M51.9866 110.789C50.9174 110.789 49.8483 110.789 48.7346 110.789V110.343C60.6733 110.477 68.4245 110.21 77.8239 103.661C86.867 97.3356 88.6043 89.1389 88.6043 89.0498L89.0498 89.1389C89.0498 89.228 87.2679 97.6029 78.0912 104.062C69.4936 109.987 62.2324 110.789 51.9866 110.789Z" fill="#9D5AEE"/>
<path d="M11.1813 84.9515C11.1813 84.7288 11.1368 64.7271 11.9832 47.1755C12.785 30.1585 15.7697 15.948 44.3244 14.6116V15.057C16.1706 16.3489 13.2305 30.3813 12.4286 47.1755C11.5822 64.7271 11.6268 84.7288 11.6268 84.9515H11.1813Z" fill="#9D5AEE"/>
<path d="M85.0404 45.9728C84.194 30.4258 81.1203 16.3489 53.1892 15.057V14.6116C81.4767 15.9034 84.595 30.2031 85.4414 45.9728H85.0404Z" fill="#9D5AEE"/>
<path d="M69.5825 89.2279H27.9755C21.6943 89.2279 16.616 84.1495 16.616 77.8684V66.7761H17.0614V77.8684C17.0614 83.8822 21.9616 88.7824 27.9755 88.7824H69.6271C75.6409 88.7824 80.5411 83.8822 80.5411 77.8684V45.1708C80.5411 39.1569 75.6409 34.2568 69.6271 34.2568H27.9755C21.9616 34.2568 17.0614 39.1569 17.0614 45.1708V52.8329H16.616V45.1708C16.616 38.8897 21.6943 33.8113 27.9755 33.8113H69.6271C75.9082 33.8113 80.9866 38.8897 80.9866 45.1708V77.8684C80.942 84.105 75.8637 89.2279 69.5825 89.2279Z" fill="#9D5AEE"/>
<path d="M65.4843 84.0159H33.7667C27.4856 84.0159 22.4072 78.9376 22.4072 72.6564V51.0956C22.4072 44.8145 27.4856 39.7361 33.7667 39.7361H65.4843C71.7655 39.7361 76.8438 44.8145 76.8438 51.0956V72.6564C76.8438 78.893 71.7655 84.0159 65.4843 84.0159ZM33.7667 40.1816C27.7529 40.1816 22.8527 45.0817 22.8527 51.0956V72.6564C22.8527 78.6703 27.7529 83.5705 33.7667 83.5705H65.4843C71.4982 83.5705 76.3984 78.6703 76.3984 72.6564V51.0956C76.3984 45.0817 71.4982 40.1816 65.4843 40.1816H33.7667Z" fill="#9D5AEE"/>
<path d="M61.9651 84.0159H33.7667C27.4856 84.0159 22.4072 78.9376 22.4072 72.6564V51.0956C22.4072 44.8145 27.4856 39.7361 33.7667 39.7361H61.9205C68.2017 39.7361 73.2801 44.8145 73.2801 51.0956V72.6564C73.3246 78.893 68.2017 84.0159 61.9651 84.0159ZM33.7667 40.1816C27.7529 40.1816 22.8527 45.0817 22.8527 51.0956V72.6564C22.8527 78.6703 27.7529 83.5705 33.7667 83.5705H61.9205C67.9344 83.5705 72.8346 78.6703 72.8346 72.6564V51.0956C72.8346 45.0817 67.9344 40.1816 61.9205 40.1816H33.7667Z" fill="#9D5AEE"/>
<path d="M20.2244 69.6716H19.1998C17.7298 69.6716 16.5715 68.5134 16.5715 67.0433H17.017C17.017 68.2461 17.997 69.2261 19.1998 69.2261H20.2244C21.4272 69.2261 22.4072 68.2461 22.4072 67.0433V52.5655C22.4072 51.3628 21.4272 50.3827 20.2244 50.3827H19.1998C17.997 50.3827 17.017 51.3628 17.017 52.5655H16.5715C16.5715 51.0955 17.7298 49.9373 19.1998 49.9373H20.2244C21.6945 49.9373 22.8527 51.0955 22.8527 52.5655V67.0433C22.8527 68.5134 21.6945 69.6716 20.2244 69.6716Z" fill="#9D5AEE"/>
<path d="M16.3042 67.0435H16.126C14.4332 67.0435 13.0522 65.6625 13.0522 63.9697V55.5503C13.0522 53.8575 14.4332 52.4766 16.126 52.4766H16.3042C17.997 52.4766 19.3779 53.8575 19.3779 55.5503V63.9697C19.3779 65.6625 17.997 67.0435 16.3042 67.0435ZM16.126 53.0111C14.7005 53.0111 13.4977 54.1694 13.4977 55.6394V64.0588C13.4977 65.4843 14.6559 66.6871 16.126 66.6871H16.3042C17.7297 66.6871 18.9325 65.5289 18.9325 64.0588V55.6394C18.9325 54.2139 17.7742 53.0111 16.3042 53.0111H16.126Z" fill="#9D5AEE"/>
<path d="M16.126 67.0435C14.4332 67.0435 13.0522 65.6625 13.0522 63.9697V55.5503C13.0522 53.8575 14.4332 52.4766 16.126 52.4766C17.8188 52.4766 19.1998 53.8575 19.1998 55.5503V63.9697C19.1998 65.6625 17.8188 67.0435 16.126 67.0435ZM16.126 53.0111C14.7005 53.0111 13.4977 54.1694 13.4977 55.6394V64.0588C13.4977 65.4843 14.6559 66.6871 16.126 66.6871C17.5515 66.6871 18.7543 65.5289 18.7543 64.0588V55.6394C18.7543 54.1694 17.5961 53.0111 16.126 53.0111Z" fill="#9D5AEE"/>
<path d="M86.2877 83.7931C85.3077 83.7931 84.194 83.6149 83.2585 82.9467C81.2984 81.5212 80.5411 78.7147 80.4966 78.581L80.9421 78.4474C80.9421 78.492 81.6994 81.2539 83.5258 82.5903C85.0849 83.704 87.3568 83.303 87.9805 83.1694V68.0234C87.9805 65.8406 87.3568 64.1923 86.1095 63.1232C84.0158 61.2968 80.8084 61.7868 80.7639 61.7868L80.6748 61.3413C80.8084 61.3413 84.1049 60.8513 86.3768 62.8114C87.7132 63.9696 88.3814 65.7069 88.3814 68.0234V83.5258L88.2032 83.5703C88.2032 83.5703 87.3568 83.7931 86.2877 83.7931Z" fill="#9D5AEE"/>
<path d="M88.0696 82.2339C87.2232 82.2339 86.555 81.9667 86.065 81.4766C85.2631 80.6748 85.085 79.4275 85.085 78.492V68.4689C85.085 66.9543 85.4413 65.8406 86.1541 65.1724C86.8223 64.5042 87.6242 64.5487 87.6242 64.5487L87.5796 64.9942V64.7714V64.9942C87.5796 64.9942 86.9559 64.9496 86.4214 65.4842C85.7977 66.0633 85.5304 67.0434 85.5304 68.4243V78.4474C85.5304 79.2938 85.6641 80.4075 86.3768 81.1203C86.8223 81.5657 87.446 81.7439 88.2033 81.7439V82.1894C88.1587 82.2339 88.1142 82.2339 88.0696 82.2339Z" fill="#9D5AEE"/>
<path d="M84.5949 51.7639H80.4966V45.75H84.5949C85.8422 45.75 86.8668 46.7746 86.8668 48.0219V49.5365C86.8668 50.7838 85.8422 51.7639 84.5949 51.7639ZM80.9421 51.3184H84.5949C85.6195 51.3184 86.4213 50.5165 86.4213 49.492V47.9774C86.4213 46.9528 85.6195 46.1509 84.5949 46.1509H80.9421V51.3184Z" fill="#9D5AEE"/>
<path d="M84.5949 61.475H80.4966V55.1047H84.5949C85.8422 55.1047 86.8668 56.1293 86.8668 57.3766V59.2031C86.8668 60.4504 85.8422 61.475 84.5949 61.475ZM80.9421 61.0295H84.5949C85.6195 61.0295 86.4213 60.2277 86.4213 59.2031V57.3766C86.4213 56.3521 85.6195 55.5502 84.5949 55.5502H80.9421V61.0295Z" fill="#9D5AEE"/>
<path d="M85.6195 51.4519H85.1741V55.4166H85.6195V51.4519Z" fill="#9D5AEE"/>
<path d="M86.3324 83.5703H85.887V84.9513H86.3324V83.5703Z" fill="#9D5AEE"/>
<path d="M88.1588 83.3923H87.7134V86.1097H88.1588V83.3923Z" fill="#9D5AEE"/>
<path d="M48.7791 120.5C40.9388 120.5 27.7529 120.5 15.636 112.615C3.65287 104.819 0.0890943 93.1479 0.0445471 93.0142L0 92.7915L9.75582 88.2922L9.80037 88.5595C11.0031 93.1033 14.3442 97.959 18.4871 101.255C28.7329 109.274 39.0233 109.185 46.5518 109.096C47.3091 109.096 48.0218 109.096 48.7346 109.096V109.541C48.0218 109.541 47.3091 109.541 46.5518 109.541C38.9342 109.63 28.5547 109.719 18.2198 101.612C14.0769 98.3599 10.7359 93.5488 9.44399 88.9604L0.534566 93.1033C1.02458 94.6179 4.90019 105.087 15.8588 112.259C27.842 120.099 40.9388 120.099 48.7346 120.099L48.7791 120.5Z" fill="#9D5AEE"/>
<path d="M48.7791 120.5V120.054C56.5748 120.054 69.6717 120.054 81.6549 112.214C92.658 105.042 96.4891 94.5735 96.9791 93.0589L88.0696 88.916C86.7778 93.4598 83.4367 98.3154 79.2939 101.567C68.9589 109.72 58.5349 109.586 50.9619 109.497C50.2046 109.497 49.4918 109.497 48.7791 109.497V109.051C49.4918 109.051 50.2046 109.051 50.9619 109.051C58.4903 109.14 68.8253 109.229 79.0266 101.211C83.1695 97.9591 86.5105 93.1034 87.7133 88.5151L87.8024 88.2478L97.5582 92.7471L97.5136 92.9252C97.4691 93.0589 93.9053 104.73 81.9221 112.526C69.8053 120.5 56.6194 120.5 48.7791 120.5Z" fill="#9D5AEE"/>
<path d="M48.0219 119.297C32.8313 119.297 20.4472 115.6 12.1614 108.561C4.49933 102.013 1.06921 92.658 1.02466 92.5689L1.42558 92.4353C1.47013 92.5244 4.85571 101.79 12.4287 108.25C20.759 115.333 33.3213 119.03 48.7346 118.896V119.342C48.5119 119.297 48.2892 119.297 48.0219 119.297Z" fill="#9D5AEE"/>
<path d="M49.2692 119.297C49.0464 119.297 48.7791 119.297 48.5564 119.297V118.852C64.0143 118.985 76.532 115.288 84.8623 108.205C92.4799 101.746 95.8209 92.5243 95.8655 92.3906L96.2664 92.5243C96.2219 92.6134 92.8363 101.968 85.1296 108.517C76.8438 115.6 64.4597 119.297 49.2692 119.297Z" fill="#9D5AEE"/>
<path d="M48.779 28.5992C46.1953 28.5992 44.1016 26.5055 44.1016 23.9217C44.1016 21.4271 48.3781 10.0676 48.5563 9.57753L48.779 9.04297L49.0018 9.57753C49.1799 10.0676 53.501 21.4271 53.501 23.8772C53.4565 26.4609 51.3628 28.5992 48.779 28.5992ZM48.779 10.2903C47.8881 12.6513 44.547 21.828 44.547 23.9217C44.547 26.2382 46.4626 28.1537 48.779 28.1537C51.0955 28.1537 53.011 26.2382 53.011 23.9217C53.011 21.7835 49.67 12.6513 48.779 10.2903Z" fill="#9D5AEE"/>
<path d="M51.9419 18.3089L51.63 17.997C52.521 17.1952 53.011 16.037 53.011 14.8787C53.011 12.785 49.67 3.65287 48.779 1.24732C47.8881 3.60832 44.547 12.785 44.547 14.8787C44.547 16.0815 45.0371 17.1952 45.928 17.997L45.6162 18.3089C44.6361 17.4179 44.1016 16.1706 44.1016 14.8342C44.1016 12.3396 48.3781 0.980037 48.5563 0.534566L48.779 0L49.0018 0.534566C49.1799 1.02458 53.501 12.3841 53.501 14.8342C53.4565 16.1706 52.8774 17.4625 51.9419 18.3089Z" fill="#9D5AEE"/>
<path d="M18.6653 28.4656L18.2644 28.2428C18.309 28.1092 23.6992 16.8833 43.0772 16.8833V17.3288C24.011 17.3288 18.7099 28.3319 18.6653 28.4656Z" fill="#9D5AEE"/>
<path d="M82.7685 38.7116C81.744 31.1831 78.3138 26.3275 78.2693 26.2829L78.6257 26.0156C78.6702 26.0602 82.1894 31.0049 83.214 38.667L82.7685 38.7116Z" fill="#9D5AEE"/>
<g clip-path="url(#clip1)">
<path d="M48.4465 77.497C48.3706 77.497 48.2946 77.4819 48.2187 77.4517C39.8919 73.835 34.5061 65.6358 34.5061 56.5664C34.5061 54.4638 34.7794 52.4065 35.3211 50.4598C35.397 50.1831 35.6703 50.0121 35.9538 50.0574C40.0134 50.7314 44.4577 50.1932 48.2187 48.5483C48.3604 48.4829 48.5224 48.4829 48.6692 48.5483C51.433 49.7405 54.3689 50.3441 57.3857 50.3441C58.6057 50.3441 59.8154 50.2485 60.9695 50.0574C61.2581 50.0171 61.5264 50.1831 61.6023 50.4598C62.1439 52.4065 62.4172 54.4638 62.4172 56.5664C62.4172 65.6409 57.0213 73.8401 48.6641 77.4517C48.6034 77.4819 48.5275 77.497 48.4465 77.497ZM36.2778 51.2395C35.8475 52.9447 35.6298 54.7354 35.6298 56.5664C35.6298 65.1077 40.6512 72.8391 48.4465 76.325C56.262 72.8441 61.2935 65.1127 61.2935 56.5664C61.2935 54.7354 61.0758 52.9497 60.6456 51.2395C59.5826 51.3904 58.4892 51.4658 57.3857 51.4658C54.2929 51.4658 51.2862 50.8622 48.4465 49.6751C44.6956 51.2596 40.3374 51.8179 36.2778 51.2395Z" fill="#9D5AEE"/>
<path d="M48.4466 78C48.2947 78 48.1479 77.9698 48.0163 77.9095C39.5023 74.2123 34 65.837 34 56.5664C34 54.4185 34.2784 52.3159 34.8352 50.329C34.9769 49.8109 35.4933 49.4789 36.0298 49.5594H36.0399C40.0034 50.2183 44.3718 49.6801 48.0163 48.0905C48.2846 47.9698 48.5984 47.9698 48.8718 48.0905C51.5697 49.2575 54.4348 49.8461 57.3858 49.8461C58.5804 49.8461 59.7548 49.7505 60.8886 49.5644H60.8988C61.4404 49.4889 61.9516 49.8159 62.0934 50.334C62.6451 52.326 62.9286 54.4235 62.9286 56.5714C62.9286 65.8471 57.4111 74.2223 48.8718 77.9145C48.7452 77.9698 48.5984 78 48.4466 78ZM35.8729 50.5553C35.8476 50.5553 35.8172 50.5704 35.8121 50.5956C35.2807 52.497 35.0124 54.5091 35.0124 56.5664C35.0124 65.4346 40.2767 73.4527 48.4263 76.9889C48.4415 76.999 48.4567 76.994 48.4668 76.9889C56.6367 73.4577 61.9162 65.4396 61.9162 56.5664C61.9162 54.5091 61.6479 52.497 61.1164 50.5956C61.1063 50.5654 61.0759 50.5503 61.0456 50.5553C59.8611 50.7515 58.631 50.8521 57.3858 50.8521C54.293 50.8521 51.2964 50.2334 48.4668 49.0111C48.4516 49.006 48.4364 49.006 48.4213 49.0111C44.6046 50.6811 40.0287 51.2394 35.878 50.5553H35.8729ZM48.4466 76.8783L48.239 76.7877C44.3262 75.0372 41.0208 72.2103 38.6924 68.6187C36.3588 65.0221 35.1237 60.8571 35.1237 56.5714C35.1237 54.7052 35.3465 52.8692 35.7868 51.1237L35.8982 50.6861L36.3487 50.7515C40.3476 51.3099 44.5742 50.7666 48.2542 49.2072L48.4516 49.1217L48.649 49.2022C51.4229 50.3642 54.369 50.9527 57.3909 50.9527C58.4792 50.9527 59.5523 50.8773 60.5799 50.7314L61.0304 50.666L61.1417 51.1087C61.5821 52.8592 61.8048 54.6901 61.8048 56.5563C61.8048 60.8471 60.5697 65.0121 58.2312 68.6087C55.8926 72.2002 52.5821 75.0272 48.6592 76.7726L48.4466 76.8783ZM36.6676 51.7978C36.3183 53.332 36.1412 54.9366 36.1412 56.5664C36.1412 60.661 37.3206 64.6348 39.5478 68.0704C41.7345 71.4356 44.8071 74.0966 48.4567 75.7716C52.1114 74.0966 55.194 71.4356 57.3858 68.0704C59.6181 64.6398 60.7975 60.661 60.7975 56.5664C60.7975 54.9366 60.6204 53.332 60.2711 51.7978C59.3346 51.9085 58.3729 51.9688 57.396 51.9688C54.3082 51.9688 51.3015 51.3803 48.4567 50.2183C44.7919 51.7223 40.6361 52.2807 36.6676 51.7978Z" fill="#9D5AEE"/>
<path d="M52.3238 67.2957C52.2631 67.2957 52.2023 67.2856 52.1416 67.2655L48.4515 66.013L44.7917 67.2655C44.6196 67.3259 44.4273 67.2957 44.2754 67.19C44.1286 67.0844 44.0375 66.9134 44.0426 66.7273L44.1084 62.8389L41.7749 59.7655C41.6635 59.6196 41.6331 59.4285 41.6888 59.2574C41.7445 59.0814 41.8862 58.9456 42.0583 58.8953L45.7788 57.7685L47.9858 54.6045C48.0921 54.4536 48.2642 54.3631 48.4464 54.3631C48.6539 54.3379 48.8058 54.4536 48.907 54.5995L51.1494 57.7685L54.8699 58.8953C55.0471 58.9506 55.1838 59.0814 55.2394 59.2574C55.2951 59.4285 55.2647 59.6196 55.1534 59.7655L52.8249 62.8389L52.8907 66.7273C52.8958 66.9083 52.8047 67.0844 52.6579 67.19C52.5566 67.2554 52.4402 67.2957 52.3238 67.2957ZM48.4464 64.8611C48.5072 64.8611 48.5679 64.8711 48.6286 64.8912L51.7467 65.9526L51.6911 62.6679C51.6911 62.5421 51.7316 62.4214 51.8024 62.3208L53.7664 59.7353L50.6281 58.7846C50.5066 58.7494 50.4054 58.6739 50.3345 58.5733L48.4515 55.8973L46.5938 58.5633C46.5229 58.6689 46.4166 58.7444 46.2951 58.7796L43.1568 59.7303L45.1208 62.3158C45.1967 62.4164 45.2372 62.5371 45.2321 62.6629L45.1764 65.9476L48.2591 64.8912C48.3249 64.8711 48.3857 64.8611 48.4464 64.8611ZM46.1281 58.2464H46.1382H46.1281Z" fill="#9D5AEE"/>
<path d="M44.6096 67.7988C44.3869 67.7988 44.1692 67.7284 43.9819 67.5926C43.7035 67.3914 43.5365 67.0644 43.5415 66.7173L43.6023 63L41.3751 60.0674C41.1675 59.7908 41.1017 59.4286 41.2131 59.1016C41.3194 58.7696 41.5826 58.5131 41.9167 58.4125L45.4701 57.336L47.5758 54.3129C47.7682 54.0362 48.0871 53.8652 48.4262 53.8552C48.7856 53.825 49.1045 53.9859 49.3323 54.3079L51.4735 57.336L55.032 58.4125C55.3661 58.5131 55.6293 58.7696 55.7356 59.1016C55.8419 59.4336 55.7811 59.7958 55.5736 60.0674L53.3464 63L53.4071 66.7123C53.4122 67.0594 53.2451 67.3863 52.9667 67.5875C52.7845 67.7183 52.5668 67.7887 52.3391 67.7887C52.2176 67.7887 52.1012 67.7686 51.9898 67.7334L48.4617 66.5362L44.969 67.7334C44.8424 67.7787 44.726 67.7988 44.6096 67.7988ZM46.1282 58.1459L46.0927 58.1962L42.2052 59.3733C42.185 59.3783 42.1748 59.3934 42.1698 59.4085C42.1647 59.4236 42.1698 59.4437 42.1799 59.4588L44.6197 62.668L44.5539 66.7274C44.5539 66.7475 44.564 66.7626 44.5742 66.7727C44.5893 66.7827 44.6096 66.7877 44.6197 66.7827L44.6298 66.7777L48.4515 65.4698L52.3087 66.7777C52.3087 66.7777 52.3138 66.7777 52.3289 66.7777C52.3391 66.7777 52.3542 66.7727 52.3593 66.7676C52.3745 66.7576 52.3846 66.7374 52.3846 66.7224L52.3188 62.663L54.7586 59.4537C54.7688 59.4387 54.7738 59.4185 54.7688 59.4034C54.7637 59.3883 54.7485 59.3733 54.7333 59.3682L50.8458 58.1912L48.5072 54.8813C48.5022 54.8712 48.492 54.8612 48.487 54.8562H48.4617C48.4414 54.8562 48.4262 54.8662 48.4161 54.8813L46.1535 58.1207V58.2918H46.1585C46.1686 58.2867 46.1838 58.2817 46.1889 58.2716L48.4617 55.0121L50.7648 58.2716C50.7699 58.2817 50.78 58.2867 50.7952 58.2918L54.627 59.4537L52.2226 62.6177C52.2176 62.6278 52.2125 62.6429 52.2125 62.6529L52.2783 66.6519L48.4819 65.3592C48.4769 65.3592 48.4718 65.3491 48.4414 65.3592L44.6805 66.6469L44.7463 62.6479C44.7463 62.6378 44.7412 62.6228 44.7361 62.6127L42.3318 59.4487L46.1433 58.2918V58.1459H46.1282ZM48.4465 64.3582C48.568 64.3582 48.6844 64.3783 48.7958 64.4135L51.2305 65.2384L51.19 62.668C51.185 62.4316 51.2659 62.1952 51.4077 62.0091L52.9364 59.997L50.4915 59.2576C50.2637 59.1871 50.0663 59.0463 49.9296 58.8501L48.4617 56.7727L47.0089 58.8501C46.8722 59.0463 46.6698 59.1922 46.442 59.2626L43.9971 60.002L45.5258 62.0141C45.6675 62.2002 45.7434 62.4316 45.7434 62.668L45.703 65.2334L48.1124 64.4085C48.2187 64.3733 48.3351 64.3582 48.4465 64.3582Z" fill="#9D5AEE"/>
</g>
</g>
<defs>
<clipPath id="clip0">
<rect width="97.5582" height="120.5" fill="white"/>
</clipPath>
<clipPath id="clip1">
<rect width="28.9286" height="30" fill="white" transform="translate(34 48)"/>
</clipPath>
</defs>
</svg>
