<svg width="21" height="13" viewBox="0 0 21 13" fill="none" xmlns="http://www.w3.org/2000/svg">
<path d="M19.6833 0H0.766667C0.333333 0 0 0.289855 0 0.666667C0 1.02899 0.333333 1.33333 0.766667 1.33333H19.7C20.1167 1.33333 20.4667 1.04348 20.4667 0.666667C20.45 0.289855 20.1167 0 19.6833 0Z" fill="white"/>
<path d="M19.5333 6.6665C19.95 6.6665 20.2833 6.37664 20.2833 6.01432C20.2833 5.652 19.95 5.34766 19.5333 5.34766H8.75C8.33333 5.34766 8 5.63751 8 6.01432C8 6.37664 8.33333 6.6665 8.75 6.6665H19.5333Z" fill="white"/>
<path d="M18.8167 10.6812H13.7667C13.35 10.6812 13 10.971 13 11.3478C13 11.7101 13.3333 12.0145 13.7667 12.0145H18.8167C19.2333 12.0145 19.5833 11.7246 19.5833 11.3478C19.5667 10.9855 19.2333 10.6812 18.8167 10.6812Z" fill="white"/>
</svg>
