<svg width="32" height="32" viewBox="0 0 32 32" fill="none" xmlns="http://www.w3.org/2000/svg">
<g clip-path="url(#clip0)">
<path d="M21.1844 10.1403C20.7199 9.67588 19.9716 9.67588 19.5329 10.1403L15.6624 14.0109L11.7918 10.1403C11.3273 9.67588 10.579 9.67588 10.1403 10.1403C9.67588 10.6048 9.67588 11.3531 10.1403 11.7918L14.0109 15.6624L10.1403 19.5329C9.67588 19.9974 9.67588 20.7457 10.1403 21.1844C10.3726 21.4166 10.6822 21.5198 10.9661 21.5198C11.2757 21.5198 11.5596 21.4166 11.7918 21.1844L15.6624 17.3138L19.5329 21.1844C19.7652 21.4166 20.0748 21.5198 20.3586 21.5198C20.6683 21.5198 20.9521 21.4166 21.1844 21.1844C21.6488 20.7199 21.6488 19.9716 21.1844 19.5329L17.3138 15.6624L21.1844 11.7918C21.6488 11.3273 21.6488 10.579 21.1844 10.1403Z" fill="white"/>
<path d="M15.6629 0C7.01863 0 0 7.01863 0 15.6629C0 24.3072 7.01863 31.3258 15.6629 31.3258C24.3072 31.3258 31.3258 24.3072 31.3258 15.6629C31.3 7.01863 24.2814 0 15.6629 0ZM15.6629 28.9519C8.33463 28.9519 2.34815 22.9912 2.34815 15.6371C2.34815 8.30882 8.30882 2.32234 15.6629 2.32234C23.017 2.32234 28.9777 8.28302 28.9777 15.6371C28.9519 22.9912 22.9912 28.9519 15.6629 28.9519Z" fill="white"/>
</g>
<defs>
<clipPath id="clip0">
<rect width="31.3" height="31.3" fill="white"/>
</clipPath>
</defs>
</svg>
