<svg width="28" height="27" viewBox="0 0 28 27" fill="none" xmlns="http://www.w3.org/2000/svg">
<g clip-path="url(#clip0)">
<path d="M20.5429 25.6989C20.0213 25.6989 19.4595 25.5384 18.8577 25.2174L13.6417 22.3085L8.34548 25.2174C7.74364 25.5384 7.18191 25.6989 6.66032 25.6989C6.05847 25.6989 5.53687 25.4782 5.17577 25.0569C4.71435 24.4952 4.55386 23.6526 4.73441 22.6094L5.71743 16.7916L1.48445 12.5787C0.581684 11.696 0.220578 10.7531 0.501438 9.91051C0.762238 9.08799 1.60482 8.52627 2.86869 8.34572L8.76677 7.38276L11.3748 2.14672C11.9365 1.02327 12.7389 0.401367 13.6016 0.401367C14.4843 0.401367 15.2667 1.02327 15.8284 2.16678L18.4364 7.3627L24.3545 8.34572C25.5984 8.52627 26.4409 9.08799 26.7017 9.91051C26.9625 10.733 26.6215 11.696 25.7187 12.5787L21.4256 16.8117L22.4688 22.5894C22.6493 23.6326 22.4888 24.4752 22.0274 25.0369C21.6663 25.4782 21.1447 25.6989 20.5429 25.6989ZM13.6417 21.2453C13.722 21.2453 13.8022 21.2653 13.8824 21.3054L19.3592 24.3347C19.8006 24.5554 20.2219 24.6958 20.5629 24.6958C20.8638 24.6958 21.1046 24.5955 21.2651 24.3949C21.5259 24.0739 21.6262 23.4921 21.4858 22.7699L20.4024 16.7314C20.3824 16.5709 20.4225 16.4104 20.5429 16.2901L25.0366 11.8765C25.6585 11.2747 25.9193 10.6929 25.7789 10.2315C25.6385 9.79014 25.0768 9.46916 24.2141 9.34879L18.0352 8.30559C17.8747 8.28553 17.7343 8.18522 17.6741 8.04479L14.9256 2.60813C14.5445 1.84579 14.063 1.40444 13.6016 1.40444C13.1402 1.40444 12.6587 1.84579 12.2775 2.60813L9.54917 8.08492C9.46892 8.22535 9.34855 8.32566 9.18806 8.36578L3.00912 9.36885C2.14648 9.48922 1.58476 9.8102 1.44433 10.2516C1.3039 10.6929 1.5647 11.2948 2.1866 11.8765L6.62019 16.2499C6.74056 16.3703 6.78068 16.5308 6.76062 16.6913L5.71743 22.7699C5.59706 23.4921 5.6773 24.0739 5.9381 24.3949C6.27915 24.7961 7.00136 24.7761 7.864 24.3347L13.3809 21.3054C13.4612 21.2653 13.5615 21.2453 13.6417 21.2453Z" fill="white"/>
<path d="M20.5429 25.8994C20.0012 25.8994 19.3994 25.7389 18.7775 25.3979L13.6418 22.5491L8.44583 25.3979C7.80386 25.7389 7.22208 25.8994 6.66036 25.8994C5.99833 25.8994 5.43661 25.6587 5.03538 25.1772C4.53384 24.5754 4.35329 23.6726 4.53384 22.5692L5.51685 16.8517L1.34407 12.7391C0.381115 11.7962 -5.33313e-05 10.773 0.300869 9.87028C0.601791 8.96751 1.4845 8.36567 2.82862 8.16505L8.62638 7.22216L11.1943 2.08642C11.7961 0.882732 12.6387 0.220703 13.6016 0.220703C14.5646 0.220703 15.4072 0.882732 16.009 2.08642L18.5769 7.2021L24.3947 8.18512C25.7188 8.38573 26.6215 8.98758 26.9024 9.89034C27.2033 10.7931 26.8221 11.8162 25.8592 12.7591L21.6463 16.9119L22.6694 22.5893C22.85 23.6926 22.6895 24.5954 22.1679 25.1973C21.7867 25.6386 21.2049 25.8994 20.5429 25.8994ZM13.6418 22.0877L18.9781 25.0368C19.5398 25.3377 20.0815 25.4781 20.563 25.4781V25.6787V25.4781C21.1046 25.4781 21.566 25.2775 21.887 24.8963C22.3284 24.3747 22.4487 23.5923 22.2883 22.6093L21.225 16.7313L25.5783 12.4382C26.4209 11.6156 26.762 10.7329 26.5212 9.99065C26.2805 9.22831 25.4981 8.72678 24.3345 8.56628L18.3161 7.56321L15.6479 2.24691C15.1263 1.18365 14.4041 0.601871 13.6016 0.601871C12.7992 0.601871 12.077 1.18365 11.5554 2.24691L8.90725 7.58327L2.8888 8.56628C1.70517 8.74684 0.922775 9.24838 0.682037 10.0107C0.441299 10.753 0.762283 11.6156 1.62493 12.4382L5.95821 16.7113L4.95513 22.6294C4.79464 23.6124 4.93507 24.3948 5.35636 24.9164C5.95821 25.6186 7.04153 25.6787 8.26528 25.0368L13.6418 22.0877ZM20.5429 24.8963C20.1617 24.8963 19.7204 24.776 19.259 24.5152L13.7822 21.4859C13.7019 21.4458 13.5816 21.4458 13.5013 21.4859L7.98442 24.5152C7.04153 25.0167 6.21901 25.0167 5.81778 24.5352C5.51685 24.1741 5.41655 23.5322 5.55698 22.7498L6.56005 16.6511C6.58011 16.5508 6.53999 16.4505 6.47981 16.3903L2.04622 12.0169C1.38419 11.3749 1.08327 10.6928 1.26382 10.1712C1.44437 9.64961 2.04622 9.2885 2.98911 9.14807L9.14798 8.14499C9.24829 8.12493 9.32854 8.06475 9.36866 7.9845L12.097 2.50771C12.5183 1.68519 13.06 1.20372 13.6016 1.20372C14.1634 1.20372 14.685 1.66513 15.1062 2.52777L17.8346 7.96444C17.8747 8.04469 17.955 8.10487 18.0553 8.12493L24.2342 9.16813C25.157 9.30856 25.779 9.66967 25.9394 10.1913C26.0999 10.7129 25.8191 11.3749 25.157 12.0369L20.6833 16.4505C20.6031 16.5106 20.583 16.6109 20.6031 16.7113L21.6864 22.7498C21.8268 23.5322 21.7265 24.1741 21.4256 24.5352C21.2049 24.776 20.9241 24.8963 20.5429 24.8963ZM13.6418 21.0445C13.7621 21.0445 13.8825 21.0847 13.9828 21.1248L19.4596 24.1541C19.8608 24.3747 20.262 24.475 20.563 24.475C20.8037 24.475 21.0043 24.3948 21.1247 24.2544C21.3454 23.9735 21.4256 23.4519 21.3052 22.7899L20.2219 16.7514C20.1818 16.5307 20.262 16.29 20.4225 16.1295L24.9163 11.7159C25.458 11.1743 25.7188 10.6527 25.5984 10.2916C25.478 9.93047 24.9564 9.6496 24.2142 9.52924L18.0352 8.48604C17.8145 8.44592 17.6139 8.30549 17.5136 8.10487L14.7451 2.70833C14.4041 2.00618 13.9828 1.60495 13.6016 1.60495C13.2205 1.60495 12.7992 2.00618 12.4581 2.68827L9.72977 8.16505C9.62946 8.36567 9.42884 8.5061 9.20817 8.54622L3.02923 9.5493C2.26689 9.66967 1.7453 9.95053 1.62493 10.3116C1.50456 10.6727 1.76536 11.2144 2.30702 11.736L6.74061 16.1094C6.9011 16.2699 6.98134 16.5106 6.94122 16.7313L5.89802 22.8099C5.77765 23.472 5.8579 23.9936 6.07858 24.2744C6.35944 24.5954 7.0014 24.5553 7.74368 24.1541L13.2606 21.1248C13.401 21.0646 13.5214 21.0445 13.6418 21.0445Z" fill="white"/>
<path d="M20.5429 25.8994C20.0012 25.8994 19.3994 25.7389 18.7775 25.3979L13.6418 22.5491L8.44583 25.3979C7.80386 25.7389 7.22208 25.8994 6.66036 25.8994C5.99833 25.8994 5.43661 25.6587 5.03538 25.1772C4.53384 24.5754 4.35329 23.6726 4.53384 22.5692L5.51685 16.8517L1.34407 12.7391C0.381115 11.7962 -5.33313e-05 10.773 0.300869 9.87028C0.601791 8.96751 1.4845 8.36567 2.82862 8.16505L8.62638 7.22216L11.1943 2.08642C11.7961 0.882732 12.6387 0.220703 13.6016 0.220703C14.5646 0.220703 15.4072 0.882732 16.009 2.08642L18.5769 7.2021L24.3947 8.18512C25.7188 8.38573 26.6215 8.98758 26.9024 9.89034C27.2033 10.7931 26.8221 11.8162 25.8592 12.7591L21.6463 16.9119L22.6694 22.5893C22.85 23.6926 22.6895 24.5954 22.1679 25.1973C21.7867 25.6386 21.2049 25.8994 20.5429 25.8994ZM13.6418 22.0877L18.9781 25.0368C19.5398 25.3377 20.0815 25.4781 20.563 25.4781V25.6787V25.4781C21.1046 25.4781 21.566 25.2775 21.887 24.8963C22.3284 24.3747 22.4487 23.5923 22.2883 22.6093L21.225 16.7313L25.5783 12.4382C26.4209 11.6156 26.762 10.7329 26.5212 9.99065C26.2805 9.22831 25.4981 8.72678 24.3345 8.56628L18.3161 7.56321L15.6479 2.24691C15.1263 1.18365 14.4041 0.601871 13.6016 0.601871C12.7992 0.601871 12.077 1.18365 11.5554 2.24691L8.90725 7.58327L2.8888 8.56628C1.70517 8.74684 0.922775 9.24838 0.682037 10.0107C0.441299 10.753 0.762283 11.6156 1.62493 12.4382L5.95821 16.7113L4.95513 22.6294C4.79464 23.6124 4.93507 24.3948 5.35636 24.9164C5.95821 25.6186 7.04153 25.6787 8.26528 25.0368L13.6418 22.0877ZM20.5429 24.8963C20.1617 24.8963 19.7204 24.776 19.259 24.5152L13.7822 21.4859C13.7019 21.4458 13.5816 21.4458 13.5013 21.4859L7.98442 24.5152C7.04153 25.0167 6.21901 25.0167 5.81778 24.5352C5.51685 24.1741 5.41655 23.5322 5.55698 22.7498L6.56005 16.6511C6.58011 16.5508 6.53999 16.4505 6.47981 16.3903L2.04622 12.0169C1.38419 11.3749 1.08327 10.6928 1.26382 10.1712C1.44437 9.64961 2.04622 9.2885 2.98911 9.14807L9.14798 8.14499C9.24829 8.12493 9.32854 8.06475 9.36866 7.9845L12.097 2.50771C12.5183 1.68519 13.06 1.20372 13.6016 1.20372C14.1634 1.20372 14.685 1.66513 15.1062 2.52777L17.8346 7.96444C17.8747 8.04469 17.955 8.10487 18.0553 8.12493L24.2342 9.16813C25.157 9.30856 25.779 9.66967 25.9394 10.1913C26.0999 10.7129 25.8191 11.3749 25.157 12.0369L20.6833 16.4505C20.6031 16.5106 20.583 16.6109 20.6031 16.7113L21.6864 22.7498C21.8268 23.5322 21.7265 24.1741 21.4256 24.5352C21.2049 24.776 20.9241 24.8963 20.5429 24.8963ZM13.6418 21.0445C13.7621 21.0445 13.8825 21.0847 13.9828 21.1248L19.4596 24.1541C19.8608 24.3747 20.262 24.475 20.563 24.475C20.8037 24.475 21.0043 24.3948 21.1247 24.2544C21.3454 23.9735 21.4256 23.4519 21.3052 22.7899L20.2219 16.7514C20.1818 16.5307 20.262 16.29 20.4225 16.1295L24.9163 11.7159C25.458 11.1743 25.7188 10.6527 25.5984 10.2916C25.478 9.93047 24.9564 9.6496 24.2142 9.52924L18.0352 8.48604C17.8145 8.44592 17.6139 8.30549 17.5136 8.10487L14.7451 2.70833C14.4041 2.00618 13.9828 1.60495 13.6016 1.60495C13.2205 1.60495 12.7992 2.00618 12.4581 2.68827L9.72977 8.16505C9.62946 8.36567 9.42884 8.5061 9.20817 8.54622L3.02923 9.5493C2.26689 9.66967 1.7453 9.95053 1.62493 10.3116C1.50456 10.6727 1.76536 11.2144 2.30702 11.736L6.74061 16.1094C6.9011 16.2699 6.98134 16.5106 6.94122 16.7313L5.89802 22.8099C5.77765 23.472 5.8579 23.9936 6.07858 24.2744C6.35944 24.5954 7.0014 24.5553 7.74368 24.1541L13.2606 21.1248C13.401 21.0646 13.5214 21.0445 13.6418 21.0445Z" fill="white"/>
<path d="M20.5441 26.1C19.9623 26.1 19.3404 25.9194 18.6784 25.5784L13.6229 22.7698L8.52729 25.5583C7.86526 25.8994 7.22329 26.0799 6.66157 26.0799C5.93935 26.0799 5.31745 25.7991 4.8761 25.2975C4.33444 24.6355 4.13382 23.6926 4.33444 22.5291L5.29739 16.9118L1.20484 12.8795C0.181708 11.8764 -0.199461 10.7931 0.121523 9.81007C0.422446 8.82706 1.3854 8.16503 2.80976 7.96441L8.50723 7.04158L11.0149 1.98609C11.6569 0.702152 12.5596 0 13.6028 0C14.646 0 15.5488 0.702152 16.1908 1.98609L18.6985 7.00146L24.416 7.96441C25.8203 8.16503 26.7632 8.82706 27.0842 9.81007C27.4051 10.7931 27.024 11.8764 26.0008 12.8795L21.8682 16.952L22.8713 22.5291C23.0719 23.6926 22.8913 24.6556 22.3296 25.2975C21.8882 25.8191 21.2663 26.1 20.5441 26.1ZM5.35757 25.2173C6.03966 25.8392 7.14304 25.8392 8.34673 25.2173L13.5025 22.3886L8.34673 25.2173C7.14304 25.8593 6.03966 25.8392 5.35757 25.2173ZM13.643 22.3084L18.879 25.2173C18.9994 25.2775 19.1198 25.3377 19.2401 25.3978C19.1198 25.3377 18.9994 25.2975 18.879 25.2173L13.643 22.3084ZM22.2092 24.7759C22.149 24.8762 22.0889 24.9565 22.0287 25.0367C21.9484 25.137 21.8682 25.2173 21.7679 25.2775C21.8682 25.1972 21.9484 25.117 22.0287 25.0367C22.0889 24.9565 22.149 24.8762 22.2092 24.7759ZM20.5441 25.2975C21.0256 25.2975 21.4268 25.117 21.7077 24.796C22.1089 24.3346 22.2293 23.5923 22.0688 22.6695L20.9855 16.6912L25.4391 12.3178C26.2416 11.5354 26.5425 10.753 26.3218 10.0709C26.1011 9.38878 25.3789 8.92736 24.2956 8.76687L18.1568 7.74373L15.4686 2.34719C14.9871 1.34412 14.305 0.80246 13.6028 0.80246C12.8806 0.80246 12.2186 1.34412 11.7371 2.34719L9.02882 7.7638L2.91007 8.74681C1.80669 8.9073 1.08447 9.36872 0.863798 10.0508C0.643122 10.7329 0.964106 11.5354 1.7465 12.2977L6.16003 16.651L5.1369 22.6695C4.9764 23.5923 5.09677 24.3145 5.498 24.7759C6.03966 25.4179 7.04274 25.438 8.16618 24.8562L13.643 21.867L19.0596 24.8762C19.6012 25.1571 20.1028 25.2975 20.5441 25.2975ZM4.67548 23.7729C4.73567 24.2744 4.89616 24.7158 5.17702 25.0367C5.19708 25.0769 5.2372 25.0969 5.25726 25.117C5.2372 25.0969 5.19708 25.0568 5.17702 25.0367C4.91622 24.7158 4.73567 24.2945 4.67548 23.7729ZM10.2726 4.39347L8.76802 7.40269L2.86995 8.36564C1.60607 8.5462 0.763491 9.08786 0.48263 9.93044C0.221831 10.753 0.562876 11.6958 1.46564 12.5786L5.71868 16.7714L5.65849 17.0924L5.71868 16.7714L1.4857 12.5786C0.582937 11.6958 0.221831 10.753 0.502691 9.93044C0.763491 9.10792 1.60607 8.5462 2.86995 8.36564L8.76802 7.40269L10.2726 4.39347ZM22.791 8.10484L24.3558 8.36564C25.5996 8.5462 26.4422 9.10792 26.703 9.93044C26.9638 10.753 26.6227 11.7159 25.72 12.5986L22.47 15.8085L25.72 12.5986C26.6227 11.7159 26.9839 10.773 26.703 9.93044C26.4422 9.10792 25.5996 8.5462 24.3558 8.36564L22.791 8.10484ZM13.6028 0.40123C14.3251 0.40123 15.0071 0.842583 15.5287 1.64504C15.0071 0.842583 14.3251 0.40123 13.6028 0.40123ZM13.6028 0.40123C13.0612 0.40123 12.5396 0.641968 12.0982 1.10338C12.5396 0.641968 13.0612 0.40123 13.6028 0.40123ZM20.5441 25.0969C20.1429 25.0969 19.6614 24.9565 19.1599 24.6957L13.6831 21.6664C13.663 21.6463 13.6229 21.6463 13.5828 21.6664L8.06587 24.6957C7.02268 25.2374 6.11991 25.2374 5.63843 24.6756C5.29739 24.2543 5.17702 23.5723 5.31745 22.7297L6.36065 16.651C6.36065 16.6109 6.36065 16.5909 6.34058 16.5708L1.907 12.1573C1.18478 11.4551 0.88386 10.7128 1.06441 10.111C1.26503 9.50915 1.92706 9.08785 2.95019 8.94742L9.10907 7.94435C9.14919 7.94435 9.16925 7.92429 9.18932 7.88417L11.9177 2.40738C12.359 1.52467 12.9809 1.00307 13.6028 1.00307C14.2448 1.00307 14.8266 1.50461 15.288 2.42744L18.0164 7.8641C18.0364 7.88417 18.0565 7.90423 18.0966 7.92429L24.2756 8.96749C25.2786 9.10792 25.9607 9.52921 26.1413 10.1311C26.3419 10.7329 26.0209 11.4752 25.2987 12.1773L20.825 16.5909C20.8049 16.6109 20.7849 16.651 20.8049 16.6711L21.8882 22.7096C22.0287 23.5522 21.9284 24.2543 21.5673 24.6556C21.3265 24.9565 20.9855 25.0969 20.5441 25.0969ZM20.5441 24.6957C20.8651 24.6957 21.0858 24.5954 21.2463 24.3948C21.3265 24.3145 21.3666 24.2142 21.4268 24.0938C21.3867 24.2142 21.3265 24.3145 21.2463 24.3948C21.0858 24.5954 20.845 24.6957 20.5441 24.6957ZM17.3543 23.2312L19.3404 24.3346C19.7818 24.5553 20.183 24.6756 20.5241 24.6957C20.183 24.6957 19.7617 24.5753 19.3404 24.3346L17.3543 23.2312ZM5.67856 23.4519C5.67856 23.8531 5.77886 24.1942 5.95942 24.3948C5.97948 24.4148 5.99954 24.4349 6.0196 24.455C5.99954 24.4349 5.97948 24.4148 5.95942 24.3948C5.77886 24.1942 5.67856 23.8531 5.67856 23.4519ZM11.8575 22.1479L7.88532 24.3346C7.80507 24.3747 7.72483 24.4148 7.66464 24.455C7.74489 24.4148 7.80507 24.3747 7.88532 24.3346L11.8575 22.1479ZM13.643 20.8439C13.8035 20.8439 13.9439 20.884 14.0843 20.9643L19.5611 23.9935C19.9222 24.1942 20.2833 24.2945 20.5642 24.2945C20.8049 24.2945 20.9052 24.2142 20.9654 24.154C21.146 23.9334 21.2061 23.4519 21.1058 22.85L20.0225 16.8115C19.9623 16.5106 20.0626 16.2097 20.2833 16.0091L24.7771 11.5955C25.2586 11.1341 25.4993 10.6527 25.4191 10.3718C25.3388 10.0909 24.8373 9.85019 24.1953 9.74988L17.9963 8.70669C17.7154 8.66656 17.4747 8.48601 17.3343 8.22521L14.5658 2.78855C14.2649 2.1867 13.8837 1.80553 13.6028 1.80553C13.322 1.80553 12.9408 2.1867 12.6399 2.78855L9.91153 8.26533C9.79116 8.52613 9.53036 8.70669 9.2495 8.74681L3.07056 9.74988C2.40853 9.85019 1.907 10.0909 1.82675 10.3718C1.72644 10.6527 1.98724 11.1341 2.46872 11.5955L6.90231 15.989C7.10292 16.1896 7.20323 16.4905 7.16311 16.7915L6.11991 22.8701C6.0196 23.4519 6.07978 23.9534 6.26034 24.1741C6.46095 24.4148 7.04274 24.3546 7.6847 24.0136L13.2016 20.9843C13.342 20.884 13.4825 20.8439 13.643 20.8439ZM13.643 21.2451C13.5627 21.2451 13.5025 21.2652 13.4223 21.2852C13.5627 21.2251 13.7232 21.2251 13.8436 21.2852C13.7834 21.2652 13.7032 21.2451 13.643 21.2451ZM20.3836 16.6912C20.3836 16.7112 20.3836 16.7112 20.3836 16.7313L20.8852 19.5399L20.3836 16.7313C20.4037 16.7313 20.3836 16.7112 20.3836 16.6912ZM6.76188 16.5106C6.78194 16.5708 6.78194 16.631 6.76188 16.6912L6.74181 16.7915L6.76188 16.6912C6.76188 16.631 6.76188 16.5708 6.76188 16.5106ZM2.12767 11.8162C2.14773 11.8363 2.16779 11.8563 2.18786 11.8764L6.62145 16.2498C6.66157 16.2899 6.68163 16.3301 6.70169 16.3702C6.68163 16.3301 6.64151 16.2899 6.62145 16.2498L2.18786 11.8764C2.16779 11.8563 2.14773 11.8363 2.12767 11.8162ZM25.078 11.8162C25.058 11.8363 25.0379 11.8563 25.0178 11.8764L20.5441 16.2899C20.5241 16.2899 20.5241 16.31 20.5241 16.3301C20.5241 16.31 20.5441 16.31 20.5441 16.2899L25.0178 11.8764C25.0379 11.8563 25.058 11.8363 25.078 11.8162ZM9.32975 8.30546C9.28962 8.32552 9.22944 8.34558 9.18932 8.34558L3.03044 9.34865C2.16779 9.46902 1.60607 9.79001 1.46564 10.2314C1.46564 10.2514 1.46564 10.2514 1.44558 10.2715C1.44558 10.2514 1.44558 10.2514 1.46564 10.2314C1.60607 9.79001 2.18786 9.46902 3.03044 9.34865L9.18932 8.34558C9.22944 8.34558 9.28962 8.32552 9.32975 8.30546ZM25.74 10.1912C25.74 10.2113 25.74 10.2113 25.7601 10.2314C25.7601 10.2514 25.7601 10.2514 25.7802 10.2715C25.7802 10.2514 25.7802 10.2514 25.7601 10.2314C25.7601 10.2314 25.7601 10.2113 25.74 10.1912ZM17.9963 8.30546C18.0164 8.30546 18.0164 8.30546 18.0364 8.30546L24.2154 9.34865C24.2354 9.34865 24.2555 9.34865 24.2756 9.34865C24.2555 9.34865 24.2354 9.34865 24.2154 9.34865L18.0364 8.30546C18.0164 8.30546 17.9963 8.30546 17.9963 8.30546ZM17.6151 7.98447L17.6553 8.04466L17.6151 7.98447ZM13.6028 1.4043C14.0442 1.4043 14.5056 1.80553 14.8667 2.48762C14.5056 1.78547 14.0442 1.4043 13.6028 1.4043Z" fill="white"/>
</g>
<defs>
<clipPath id="clip0">
<rect width="27.2034" height="26.1" fill="white"/>
</clipPath>
</defs>
</svg>
