<svg xmlns="http://www.w3.org/2000/svg" width="14.064" height="14" viewBox="0 0 14.064 14">
  <path id="Path_451" data-name="Path 451" d="M4.682,3.292,3.532,2.148l-.9.9L3.774,4.194ZM1,6.911H2.918V8.189H1ZM7.393.55H8.671V2.436H7.393Zm5.14,1.595.9.9L12.288,4.189l-.9-.9Zm-1.151,9.663,1.144,1.151.9-.9-1.151-1.144Zm1.764-4.9h1.918V8.189H13.146Zm-5.114-3.2A3.836,3.836,0,1,0,11.868,7.55,3.839,3.839,0,0,0,8.032,3.714Zm0,6.393A2.557,2.557,0,1,1,10.589,7.55,2.556,2.556,0,0,1,8.032,10.107Zm-.639,2.557H8.671V14.55H7.393ZM2.63,12.05l.9.9L4.676,11.8l-.9-.9Z" transform="translate(-1 -0.55)"/>
</svg>
