<svg xmlns="http://www.w3.org/2000/svg" width="13.545" height="14" viewBox="0 0 13.545 14">
  <path id="Union_5" data-name="Union 5" d="M5.509,13.65A2.751,2.751,0,0,0,6.657,12.5a5.571,5.571,0,0,0,3.927-.707,8.462,8.462,0,0,1-4.76-4.1A8.147,8.147,0,0,1,5.1,2.023a5.577,5.577,0,0,0-3.01,4.97A3.536,3.536,0,0,0,.7,7.287c0-.1-.014-.2-.014-.294A7,7,0,0,1,7.441,0a7.009,7.009,0,0,0,5.705,10.85c.14,0,.28-.007.4-.014A6.995,6.995,0,0,1,5.509,13.65ZM2.1,12.593a2.1,2.1,0,1,1,1.974-2.8H4.2a1.4,1.4,0,0,1,0,2.8Z" fill="#202020"/>
</svg>
